<svg width="132" height="132" viewBox="0 0 132 132" fill="none" xmlns="http://www.w3.org/2000/svg">
<path d="M131.536 68.083C131.01 59.1112 128.473 50.0052 124.307 41.7346C124.451 41.549 124.585 41.353 124.719 41.1571L125.121 40.5796C126.049 39.1152 126.782 37.5374 127.431 35.939C130.401 28.5037 130.463 20.1918 126.72 14.1177C124.08 9.81742 113.592 -1.33039 97.0508 8.08492C93.1526 10.3124 89.5329 10.4568 87.4704 10.2918C80.5817 8.19835 73.2495 7.12585 65.9792 7.13617C58.0592 7.11554 50.067 8.38398 42.642 10.8693C40.5589 11.0137 37.0011 10.8177 33.2061 8.6521C16.6648 -0.773519 6.18732 10.3846 3.5267 14.6849C2.38201 16.5412 1.52607 18.8099 1.08264 20.9446C0.267948 25.018 0.618573 29.5452 1.80451 33.5155C2.44389 35.6296 3.38232 37.6199 4.37232 39.5999C5.0117 40.9096 5.68201 42.209 6.4967 43.4052C6.5792 43.5393 6.64107 43.663 6.71326 43.7868C3.14514 51.5005 0.927948 59.8433 0.453573 68.083C-0.526115 84.8615 2.41295 101.753 15.9842 113.427C23.502 119.883 32.8451 124.276 42.4873 126.637C46.1483 127.545 55.6048 129.649 65.5358 129.649C75.4461 129.649 85.8411 127.545 89.502 126.637C99.1339 124.276 108.487 119.893 116.005 113.427C129.576 101.764 132.536 84.8615 131.536 68.083Z" fill="#855C52"/>
<path d="M29.1329 81.3657C32.983 81.3657 36.1041 77.6259 36.1041 73.0126C36.1041 68.3992 32.983 64.6594 29.1329 64.6594C25.2828 64.6594 22.1616 68.3992 22.1616 73.0126C22.1616 77.6259 25.2828 81.3657 29.1329 81.3657Z" fill="#2F2F2F"/>
<path d="M65.67 112.53C51.8409 112.53 40.6519 107.528 40.6519 92.1524C40.6519 76.7662 51.8409 64.2983 65.67 64.2983C79.4887 64.2983 90.7087 76.7662 90.7087 92.1524C90.7087 107.528 79.4887 112.53 65.67 112.53Z" fill="white"/>
<path d="M102.125 81.3656C98.2886 81.3656 95.1536 77.6325 95.1536 73.0228C95.1536 68.4028 98.2886 64.6697 102.125 64.6697C105.982 64.6697 109.106 68.4131 109.106 73.0228C109.106 77.6325 105.982 81.3656 102.125 81.3656ZM65.6702 91.8225C72.2289 91.8225 77.5502 87.5428 77.5502 82.2628C77.5502 76.9725 72.2289 72.7031 65.6702 72.7031C59.1114 72.7031 53.8108 76.9828 53.8108 82.2628C53.8108 87.5428 59.1114 91.8225 65.6702 91.8225ZM76.2508 97.8347C76.1167 98.0203 73.0024 102.31 65.6702 102.31C58.3895 102.31 55.2649 98.0512 55.1205 97.8347C54.3986 96.8034 52.9858 96.525 51.9339 97.2366C51.6843 97.4054 51.4704 97.622 51.3046 97.8737C51.1388 98.1254 51.0244 98.4074 50.9679 98.7035C50.9113 98.9995 50.9138 99.3039 50.9752 99.599C51.0366 99.8941 51.1556 100.174 51.3255 100.423C51.5008 100.691 55.8217 106.889 65.6702 106.889C75.5289 106.889 79.8499 100.681 80.0355 100.423C80.7367 99.3816 80.4789 97.9791 79.4374 97.2572C78.4061 96.5456 76.9727 96.8137 76.2508 97.8347Z" fill="#2F2F2F"/>
<path d="M30.5456 21.8624C29.2359 23.2443 27.2249 24.4818 26.2659 25.348C24.1209 27.2868 22.5018 29.834 20.9859 32.2677C18.7893 35.7843 15.9946 33.629 14.489 30.8859C14.3137 30.5765 14.159 30.2568 14.0146 29.9371C13.4578 28.6068 13.1587 27.1527 13.1587 25.709C13.1587 19.8412 17.8509 15.0974 23.6259 15.0974C25.6059 15.0974 27.9674 15.8708 29.7206 16.9227C29.8959 17.0258 30.1124 17.1187 30.2671 17.2321C32.5462 18.7583 31.9481 20.3877 30.5456 21.8624ZM117.263 29.9371C117.212 30.0608 117.15 30.1949 117.078 30.329C115.655 33.3196 112.633 36.0215 110.292 32.278C108.766 29.8443 107.157 27.2971 105.012 25.3583C104.053 24.4921 102.032 23.2546 100.722 21.8727C99.3299 20.398 98.7318 18.7687 101.011 17.2424C101.289 17.0568 101.609 16.8918 101.939 16.7165C103.661 15.778 105.816 15.1077 107.652 15.1077C113.437 15.1077 118.119 19.8515 118.119 25.7193C118.109 27.163 117.831 28.6068 117.263 29.9371Z" fill="#B89278"/>
</svg>
