<svg width="70" height="70" viewBox="0 0 70 70" fill="none" xmlns="http://www.w3.org/2000/svg">
<path d="M65.283 38.9048H8.95409C7.20164 38.9048 5.82471 37.2919 5.82471 35.2392C5.82471 33.1864 7.20164 31.5735 8.95409 31.5735H65.283C67.0354 31.5735 68.4124 33.1864 68.4124 35.2392C68.4124 37.2919 67.0354 38.9048 65.283 38.9048Z" fill="#3D3D3D"/>
<path d="M29.2258 63.4786C28.7631 63.4843 28.3043 63.393 27.8789 63.2106C27.4536 63.0282 27.0711 62.7588 26.756 62.4197L2.05847 37.7103C0.647177 36.2983 0.647177 34.1097 2.05847 32.6978L26.756 8.05897C28.1673 6.64701 30.3548 6.64701 31.7661 8.05897C33.1774 9.47094 33.1774 11.6595 31.7661 13.0715L9.53831 35.3099L31.7661 57.5484C33.1774 58.9603 33.1774 61.1489 31.7661 62.5609C31.0605 63.2668 30.1431 63.6198 29.2964 63.6198L29.2258 63.4786Z" fill="#3D3D3D"/>
</svg>
