<svg width="272" height="227" viewBox="0 0 272 227" fill="none" xmlns="http://www.w3.org/2000/svg">
<path fill-rule="evenodd" clip-rule="evenodd" d="M141.144 11.7171L159.545 45.2105H248.806C254.801 45.2105 260.551 47.5921 264.79 51.8314C269.029 56.0707 271.411 61.8205 271.411 67.8157V203.447C271.411 209.443 269.029 215.192 264.79 219.432C260.551 223.671 254.801 226.052 248.806 226.052H22.7532C16.7579 226.052 11.0082 223.671 6.76887 219.432C2.52957 215.192 0.147949 209.443 0.147949 203.447V22.6052C0.147949 16.61 2.52957 10.8602 6.76887 6.62092C11.0082 2.38161 16.7579 0 22.7532 0H121.335C125.383 8.5726e-05 129.358 1.08751 132.842 3.14865C136.327 5.20979 139.194 8.169 141.144 11.7171ZM256.341 67.8157C256.341 65.8173 255.547 63.9007 254.134 62.4876C252.721 61.0745 250.804 60.2807 248.806 60.2807H15.2181V203.447C15.2181 205.446 16.012 207.362 17.4251 208.775C18.8382 210.188 20.7548 210.982 22.7532 210.982H248.806C250.804 210.982 252.721 210.188 254.134 208.775C255.547 207.362 256.341 205.446 256.341 203.447V67.8157ZM22.7532 15.0702C20.7548 15.0702 18.8382 15.864 17.4251 17.2771C16.012 18.6902 15.2181 20.6068 15.2181 22.6052V45.2105H142.35L127.935 18.9733C127.285 17.7915 126.33 16.8058 125.169 16.1193C124.008 15.4327 122.684 15.0704 121.335 15.0702H22.7532Z" fill="#6C6C6C"/>
<path d="M114.68 97.2023H114.744M165.918 174.06H165.982M185.133 90.7974V180.465C185.133 183.862 183.783 187.12 181.381 189.523C178.979 191.925 175.721 193.275 172.323 193.275H108.275C104.878 193.275 101.619 191.925 99.2172 189.523C96.8149 187.12 95.4653 183.862 95.4653 180.465V90.7974C95.4653 87.4001 96.8149 84.1419 99.2172 81.7396C101.619 79.3374 104.878 77.9878 108.275 77.9878H172.323C175.721 77.9878 178.979 79.3374 181.381 81.7396C183.783 84.1419 185.133 87.4001 185.133 90.7974Z" stroke="#6C6C6C" stroke-width="9" stroke-linecap="round" stroke-linejoin="round"/>
<path d="M138.698 149.158L128.258 154.622C127.949 154.781 127.602 154.851 127.255 154.825C126.908 154.799 126.575 154.678 126.294 154.474C126.012 154.27 125.792 153.993 125.658 153.672C125.524 153.351 125.482 152.999 125.536 152.655L127.521 141.076L119.086 132.877C118.834 132.633 118.656 132.324 118.572 131.984C118.488 131.643 118.501 131.286 118.61 130.953C118.718 130.62 118.919 130.324 119.188 130.099C119.456 129.874 119.783 129.729 120.13 129.681L131.787 127.99L137.007 117.461C137.163 117.146 137.403 116.882 137.701 116.696C138 116.511 138.344 116.413 138.695 116.413C139.046 116.413 139.39 116.511 139.688 116.696C139.986 116.882 140.227 117.146 140.382 117.461L145.596 127.99L157.253 129.681C157.6 129.728 157.928 129.873 158.198 130.097C158.467 130.321 158.668 130.617 158.778 130.951C158.888 131.284 158.901 131.641 158.817 131.982C158.733 132.323 158.555 132.633 158.303 132.877L149.861 141.076L151.847 152.649C151.907 152.994 151.87 153.349 151.738 153.674C151.606 153.999 151.386 154.28 151.102 154.486C150.818 154.691 150.483 154.813 150.133 154.837C149.783 154.861 149.434 154.787 149.125 154.622L138.698 149.158Z" stroke="#6C6C6C" stroke-width="9" stroke-linecap="round" stroke-linejoin="round"/>
</svg>
