<svg width="188" height="236" viewBox="0 0 188 236" fill="none" xmlns="http://www.w3.org/2000/svg">
<g clip-path="url(#clip0_6077_42)">
<rect x="10" y="11" width="166" height="215" fill="white"/>
<path d="M90.9259 144.36L70.6603 154.966C70.0602 155.275 69.3862 155.411 68.7131 155.361C68.0401 155.31 67.3942 155.074 66.847 154.679C66.2998 154.283 65.8728 153.744 65.6132 153.121C65.3536 152.498 65.2716 151.815 65.3763 151.149L69.2305 128.67L52.8564 112.756C52.3676 112.283 52.0217 111.681 51.858 111.021C51.6944 110.361 51.7196 109.667 51.9309 109.021C52.1422 108.374 52.531 107.799 53.0529 107.363C53.5749 106.926 54.209 106.645 54.883 106.552L77.5108 103.27L87.6437 82.8299C87.9459 82.2192 88.4128 81.7052 88.9916 81.3458C89.5705 80.9864 90.2383 80.7959 90.9197 80.7959C91.6011 80.7959 92.2689 80.9864 92.8478 81.3458C93.4267 81.7052 93.8936 82.2192 94.1958 82.8299L104.316 103.27L126.944 106.552C127.619 106.643 128.255 106.923 128.778 107.359C129.302 107.794 129.692 108.369 129.905 109.016C130.118 109.663 130.144 110.357 129.981 111.018C129.818 111.68 129.472 112.282 128.983 112.756L112.596 128.67L116.451 151.136C116.568 151.806 116.495 152.496 116.239 153.126C115.983 153.757 115.556 154.302 115.005 154.702C114.454 155.101 113.802 155.337 113.124 155.384C112.445 155.431 111.767 155.286 111.167 154.966L90.9259 144.36Z" fill="#6C6C6C" stroke="#6C6C6C" stroke-width="12" stroke-linecap="round" stroke-linejoin="round"/>
<path d="M44.3031 43.5062H44.4274M143.766 192.701H143.891M181.065 31.0733V205.134C181.065 211.729 178.445 218.053 173.782 222.717C169.119 227.38 162.794 230 156.199 230H31.8702C25.2754 230 18.9507 227.38 14.2874 222.717C9.62418 218.053 7.00439 211.729 7.00439 205.134V31.0733C7.00439 24.4785 9.62418 18.1538 14.2874 13.4905C18.9507 8.8273 25.2754 6.20752 31.8702 6.20752H156.199C162.794 6.20752 169.119 8.8273 173.782 13.4905C178.445 18.1538 181.065 24.4785 181.065 31.0733Z" stroke="#6C6C6C" stroke-width="12" stroke-linecap="round" stroke-linejoin="round"/>
</g>
<defs>
<clipPath id="clip0_6077_42">
<rect width="187" height="236" fill="white" transform="translate(0.5)"/>
</clipPath>
</defs>
</svg>
