<svg width="273" height="227" viewBox="0 0 273 227" fill="none" xmlns="http://www.w3.org/2000/svg">
<g clip-path="url(#clip0_6077_51)">
<rect x="13" y="56" width="245" height="160" fill="white"/>
<rect x="11" y="10" width="106" height="42" fill="white"/>
<rect x="87.9161" y="30.4639" width="47.8816" height="50.7061" transform="rotate(-35 87.9161 30.4639)" fill="white"/>
<path d="M115.18 97.2023H115.244M166.418 174.06H166.482M185.633 90.7974V180.465C185.633 183.862 184.283 187.12 181.881 189.523C179.479 191.925 176.221 193.275 172.823 193.275H108.775C105.378 193.275 102.119 191.925 99.7172 189.523C97.3149 187.12 95.9653 183.862 95.9653 180.465V90.7974C95.9653 87.4001 97.3149 84.1419 99.7172 81.7396C102.119 79.3374 105.378 77.9878 108.775 77.9878H172.823C176.221 77.9878 179.479 79.3374 181.881 81.7396C184.283 84.1419 185.633 87.4001 185.633 90.7974Z" stroke="#6C6C6C" stroke-width="9" stroke-linecap="round" stroke-linejoin="round"/>
<path d="M139.198 149.158L128.758 154.622C128.449 154.781 128.102 154.851 127.755 154.825C127.408 154.799 127.075 154.678 126.794 154.474C126.512 154.27 126.292 153.993 126.158 153.672C126.024 153.351 125.982 152.999 126.036 152.655L128.021 141.076L119.586 132.877C119.334 132.633 119.156 132.324 119.072 131.984C118.988 131.643 119.001 131.286 119.11 130.953C119.218 130.62 119.419 130.324 119.688 130.099C119.956 129.874 120.283 129.729 120.63 129.681L132.287 127.99L137.507 117.461C137.663 117.146 137.903 116.882 138.201 116.696C138.5 116.511 138.844 116.413 139.195 116.413C139.546 116.413 139.89 116.511 140.188 116.696C140.486 116.882 140.727 117.146 140.882 117.461L146.096 127.99L157.753 129.681C158.1 129.728 158.428 129.873 158.698 130.097C158.967 130.321 159.168 130.617 159.278 130.951C159.388 131.284 159.401 131.641 159.317 131.982C159.233 132.323 159.055 132.633 158.803 132.877L150.361 141.076L152.347 152.649C152.407 152.994 152.37 153.349 152.238 153.674C152.106 153.999 151.886 154.28 151.602 154.486C151.318 154.691 150.983 154.813 150.633 154.837C150.283 154.861 149.934 154.787 149.625 154.622L139.198 149.158Z" fill="#6C6C6C" stroke="#6C6C6C" stroke-width="9" stroke-linecap="round" stroke-linejoin="round"/>
<path fill-rule="evenodd" clip-rule="evenodd" d="M141.644 11.7171L160.045 45.2105H249.306C255.301 45.2105 261.051 47.5921 265.29 51.8314C269.529 56.0707 271.911 61.8205 271.911 67.8157V203.447C271.911 209.443 269.529 215.192 265.29 219.432C261.051 223.671 255.301 226.052 249.306 226.052H23.2532C17.2579 226.052 11.5082 223.671 7.26887 219.432C3.02957 215.192 0.647949 209.443 0.647949 203.447V22.6052C0.647949 16.61 3.02957 10.8602 7.26887 6.62092C11.5082 2.38161 17.2579 0 23.2532 0H121.835C125.883 8.5726e-05 129.858 1.08751 133.342 3.14865C136.827 5.20979 139.694 8.169 141.644 11.7171ZM256.841 67.8157C256.841 65.8173 256.047 63.9007 254.634 62.4876C253.221 61.0745 251.304 60.2807 249.306 60.2807H15.7181V203.447C15.7181 205.446 16.512 207.362 17.9251 208.775C19.3382 210.188 21.2548 210.982 23.2532 210.982H249.306C251.304 210.982 253.221 210.188 254.634 208.775C256.047 207.362 256.841 205.446 256.841 203.447V67.8157ZM23.2532 15.0702C21.2548 15.0702 19.3382 15.864 17.9251 17.2771C16.512 18.6902 15.7181 20.6068 15.7181 22.6052V45.2105H142.85L128.435 18.9733C127.785 17.7915 126.83 16.8058 125.669 16.1193C124.508 15.4327 123.184 15.0704 121.835 15.0702H23.2532Z" fill="#6C6C6C"/>
</g>
<defs>
<clipPath id="clip0_6077_51">
<rect width="272" height="227" fill="white" transform="translate(0.5)"/>
</clipPath>
</defs>
</svg>
