<svg width="187" height="236" viewBox="0 0 187 236" fill="none" xmlns="http://www.w3.org/2000/svg">
<path d="M43.8031 43.5062H43.9274M143.266 192.701H143.391M180.565 31.0733V205.134C180.565 211.729 177.945 218.053 173.282 222.717C168.619 227.38 162.294 230 155.699 230H31.3702C24.7754 230 18.4507 227.38 13.7874 222.717C9.12417 218.053 6.50439 211.729 6.50439 205.134V31.0733C6.50439 24.4785 9.12417 18.1538 13.7874 13.4905C18.4507 8.8273 24.7754 6.20752 31.3702 6.20752H155.699C162.294 6.20752 168.619 8.8273 173.282 13.4905C177.945 18.1538 180.565 24.4785 180.565 31.0733Z" stroke="#6C6C6C" stroke-width="12" stroke-linecap="round" stroke-linejoin="round"/>
<path d="M90.4259 144.36L70.1603 154.966C69.5602 155.275 68.8862 155.411 68.2131 155.361C67.5401 155.31 66.8942 155.074 66.347 154.679C65.7998 154.283 65.3728 153.744 65.1132 153.121C64.8536 152.498 64.7716 151.815 64.8763 151.149L68.7305 128.67L52.3564 112.756C51.8676 112.283 51.5217 111.681 51.358 111.021C51.1944 110.361 51.2196 109.667 51.4309 109.021C51.6422 108.374 52.031 107.799 52.5529 107.363C53.0749 106.926 53.709 106.645 54.383 106.552L77.0108 103.27L87.1437 82.8299C87.4459 82.2192 87.9128 81.7052 88.4916 81.3458C89.0705 80.9864 89.7383 80.7959 90.4197 80.7959C91.1011 80.7959 91.7689 80.9864 92.3478 81.3458C92.9267 81.7052 93.3936 82.2192 93.6958 82.8299L103.816 103.27L126.444 106.552C127.119 106.643 127.755 106.923 128.278 107.359C128.802 107.794 129.192 108.369 129.405 109.016C129.618 109.663 129.644 110.357 129.481 111.018C129.318 111.68 128.972 112.282 128.483 112.756L112.096 128.67L115.951 151.136C116.068 151.806 115.995 152.496 115.739 153.126C115.483 153.757 115.056 154.302 114.505 154.702C113.954 155.101 113.302 155.337 112.624 155.384C111.945 155.431 111.267 155.286 110.667 154.966L90.4259 144.36Z" stroke="#6C6C6C" stroke-width="12" stroke-linecap="round" stroke-linejoin="round"/>
</svg>
