<svg width="200" height="168" viewBox="0 0 200 168" fill="none" xmlns="http://www.w3.org/2000/svg">
<rect x="9" y="42" width="181" height="119" fill="white"/>
<rect x="9" y="10" width="83" height="27" fill="white"/>
<rect x="76.573" y="21.1113" width="22.8591" height="30.3832" transform="rotate(-35 76.573 21.1113)" fill="white"/>
<path fill-rule="evenodd" clip-rule="evenodd" d="M103.903 10.2884L117.292 34.6579H182.237C186.599 34.6579 190.782 36.3908 193.867 39.4752C196.951 42.5597 198.684 46.7432 198.684 51.1053V149.789C198.684 154.152 196.951 158.335 193.867 161.42C190.782 164.504 186.599 166.237 182.237 166.237H17.763C13.4009 166.237 9.21748 164.504 6.133 161.42C3.04852 158.335 1.31567 154.152 1.31567 149.789V18.2106C1.31567 13.8484 3.04852 9.66498 6.133 6.5805C9.21748 3.49602 13.4009 1.76318 17.763 1.76318H89.49C92.4358 1.76325 95.3275 2.55445 97.8629 4.05411C100.398 5.55378 102.485 7.70687 103.903 10.2884ZM187.719 51.1053C187.719 49.6512 187.142 48.2568 186.113 47.2286C185.085 46.2004 183.691 45.6228 182.237 45.6228H12.2806V149.789C12.2806 151.244 12.8582 152.638 13.8864 153.666C14.9145 154.694 16.309 155.272 17.763 155.272H182.237C183.691 155.272 185.085 154.694 186.113 153.666C187.142 152.638 187.719 151.244 187.719 149.789V51.1053ZM17.763 12.7281C16.309 12.7281 14.9145 13.3057 13.8864 14.3339C12.8582 15.362 12.2806 16.7565 12.2806 18.2106V34.6579H104.781L94.2926 15.568C93.8196 14.7081 93.1244 13.991 92.2796 13.4914C91.4348 12.9919 90.4714 12.7283 89.49 12.7281H17.763Z" fill="#6C6C6C"/>
</svg>
