<svg width="51" height="50" viewBox="0 0 51 50" fill="none" xmlns="http://www.w3.org/2000/svg">
<g clip-path="url(#clip0_6077_55)">
<rect x="8" y="8" width="34" height="34" fill="white"/>
<path d="M25.5 0C11.5714 0 0.5 11.0714 0.5 25C0.5 38.9286 11.5714 50 25.5 50C39.4286 50 50.5 38.9286 50.5 25C50.5 11.0714 39.4286 0 25.5 0ZM35.1429 37.5L25.5 27.8571L15.8571 37.5L13 34.6429L22.6429 25L13 15.3571L15.8571 12.5L25.5 22.1429L35.1429 12.5L38 15.3571L28.3571 25L38 34.6429L35.1429 37.5Z" fill="#6C6C6C"/>
</g>
<defs>
<clipPath id="clip0_6077_55">
<rect width="50" height="50" fill="white" transform="translate(0.5)"/>
</clipPath>
</defs>
</svg>
