<svg width="128" height="148" viewBox="0 0 128 148" fill="none" xmlns="http://www.w3.org/2000/svg">
<g clip-path="url(#clip0_6077_57)">
<path d="M1 19C1 8.50659 9.50659 0 20 0H93C103.493 0 112 8.51054 112 19.0039C112 58.6093 112 72.0504 112 120.5V120.5C105.54 119.962 100 125.059 100 131.542V142H20C9.50659 142 1 133.493 1 123V19Z" fill="white"/>
<path d="M69.5047 142.397H19.8775C15.7991 142.397 11.8878 140.777 9.00395 137.893C6.12012 135.009 4.5 131.098 4.5 127.02V19.3775C4.5 15.2991 6.12012 11.3878 9.00395 8.50395C11.8878 5.62012 15.7991 4 19.8775 4H96.7648C100.843 4 104.754 5.62012 107.638 8.50395C110.522 11.3878 112.142 15.2991 112.142 19.3775V84.3603M27.5662 27.0662H27.6431" stroke="#6C6C6C" stroke-width="8" stroke-linecap="round" stroke-linejoin="round"/>
<path d="M56.3981 89.4364L43.8655 95.9949C43.4943 96.1859 43.0775 96.2705 42.6613 96.2391C42.2451 96.2078 41.8456 96.0619 41.5072 95.8174C41.1689 95.573 40.9048 95.2397 40.7442 94.8544C40.5837 94.469 40.533 94.0468 40.5978 93.6344L42.9813 79.7332L32.8552 69.8916C32.5529 69.5989 32.339 69.2271 32.2378 68.8187C32.1366 68.4103 32.1522 67.9816 32.2828 67.5816C32.4135 67.1816 32.6539 66.8264 32.9767 66.5565C33.2995 66.2866 33.6917 66.1128 34.1085 66.0549L48.102 64.0251L54.3683 51.3848C54.5552 51.0072 54.8439 50.6893 55.2019 50.467C55.5599 50.2447 55.9729 50.127 56.3943 50.127C56.8156 50.127 57.2286 50.2447 57.5866 50.467C57.9446 50.6893 58.2333 51.0072 58.4202 51.3848L64.6789 64.0251L78.6724 66.0549C79.0898 66.1116 79.4829 66.2845 79.8067 66.5539C80.1305 66.8234 80.3719 67.1785 80.5035 67.5787C80.635 67.9789 80.6513 68.408 80.5504 68.817C80.4496 69.226 80.2358 69.5984 79.9333 69.8916L69.7996 79.7332L72.1831 93.6267C72.2556 94.0411 72.2102 94.4675 72.0521 94.8574C71.8941 95.2472 71.6296 95.5848 71.289 95.8316C70.9484 96.0785 70.5453 96.2247 70.1256 96.2535C69.7059 96.2824 69.2866 96.1928 68.9154 95.9949L56.3981 89.4364Z" fill="#6C6C6C" stroke="#6C6C6C" stroke-width="8" stroke-linecap="round" stroke-linejoin="round"/>
<path d="M98.9431 95.6812V119.841M98.9431 119.841V144M98.9431 119.841H123.103M98.9431 119.841H74.7837" stroke="#6C6C6C" stroke-width="8" stroke-linecap="round"/>
</g>
<defs>
<clipPath id="clip0_6077_57">
<rect width="127" height="148" fill="white" transform="translate(0.5)"/>
</clipPath>
</defs>
</svg>
