<svg width="150" height="126" viewBox="0 0 150 126" fill="none" xmlns="http://www.w3.org/2000/svg">
<path fill-rule="evenodd" clip-rule="evenodd" d="M72.7689 6.07535L82.2655 23.4419H128.333C131.427 23.4419 134.395 24.6767 136.583 26.8749C138.771 29.073 140 32.0542 140 35.1628V67.4252H132.222V35.1628C132.222 34.1266 131.812 33.1329 131.083 32.4002C130.354 31.6675 129.365 31.2558 128.333 31.2558H7.77777V105.488C7.77777 106.525 8.1875 107.518 8.9168 108.251C9.64611 108.984 10.6353 109.395 11.6667 109.395L91 109.425V117.209H11.6667C8.57247 117.209 5.60501 115.974 3.41709 113.776C1.22916 111.578 0 108.597 0 105.488V11.7209C0 8.61235 1.22916 5.63108 3.41709 3.43298C5.60501 1.23488 8.57247 0 11.6667 0H62.545C64.6345 4.44493e-05 66.6857 0.56388 68.4841 1.63259C70.2826 2.7013 71.7624 4.23567 72.7689 6.07535ZM8.9168 8.95829C9.64611 8.22558 10.6353 7.81396 11.6667 7.81396H62.545C63.2411 7.81408 63.9245 8.00194 64.5237 8.35792C65.123 8.71391 65.6161 9.22498 65.9516 9.83777L73.3911 23.4419H7.77777V11.7209C7.77777 10.6847 8.1875 9.69099 8.9168 8.95829Z" fill="#6C6C6C"/>
<path d="M114.333 59.2812C117.352 59.2812 119.802 61.7313 119.802 64.75V85.5312H140.583C142.034 85.5312 143.425 86.1074 144.45 87.133C145.476 88.1586 146.052 89.5496 146.052 91C146.052 92.4504 145.476 93.8414 144.45 94.867C143.425 95.8926 142.034 96.4688 140.583 96.4688H119.802V117.25C119.802 118.7 119.226 120.091 118.2 121.117C117.175 122.143 115.784 122.719 114.333 122.719C112.883 122.719 111.492 122.143 110.467 121.117C109.441 120.091 108.865 118.7 108.865 117.25V96.4688H88.0835C86.6331 96.4688 85.2421 95.8926 84.2165 94.867C83.1909 93.8414 82.6147 92.4504 82.6147 91C82.6147 89.5496 83.1909 88.1586 84.2165 87.133C85.2421 86.1074 86.6331 85.5312 88.0835 85.5312H108.865V64.75C108.865 61.7313 111.315 59.2812 114.333 59.2812Z" fill="#6C6C6C"/>
</svg>
