<svg width="127" height="148" viewBox="0 0 127 148" fill="none" xmlns="http://www.w3.org/2000/svg">
<g clip-path="url(#clip0_6134_31)">
<path d="M0.5 19C0.5 8.50659 9.00659 0 19.5 0H92.5C102.993 0 111.5 8.51054 111.5 19.0039C111.5 58.6093 111.5 72.0504 111.5 120.5C105.04 119.962 99.5 125.059 99.5 131.542V142H19.5C9.00659 142 0.5 133.493 0.5 123V19Z" fill="white"/>
<path d="M69.0047 142.397H19.3775C15.2991 142.397 11.3878 140.777 8.50395 137.893C5.62012 135.009 4 131.098 4 127.02V19.3775C4 15.2991 5.62012 11.3878 8.50395 8.50395C11.3878 5.62012 15.2991 4 19.3775 4H96.2648C100.343 4 104.254 5.62012 107.138 8.50395C110.022 11.3878 111.642 15.2991 111.642 19.3775V84.3603M27.0662 27.0662H27.1431" stroke="#6C6C6C" stroke-width="8" stroke-linecap="round" stroke-linejoin="round"/>
<path d="M55.8981 89.4364L43.3655 95.9949C42.9943 96.1859 42.5775 96.2705 42.1613 96.2391C41.7451 96.2078 41.3456 96.0619 41.0072 95.8174C40.6689 95.573 40.4048 95.2397 40.2442 94.8544C40.0837 94.469 40.033 94.0468 40.0978 93.6344L42.4813 79.7332L32.3552 69.8916C32.0529 69.5989 31.839 69.2271 31.7378 68.8187C31.6366 68.4103 31.6522 67.9816 31.7828 67.5816C31.9135 67.1816 32.1539 66.8264 32.4767 66.5565C32.7995 66.2866 33.1917 66.1128 33.6085 66.0549L47.602 64.0251L53.8683 51.3848C54.0552 51.0072 54.3439 50.6893 54.7019 50.467C55.0599 50.2447 55.4729 50.127 55.8943 50.127C56.3156 50.127 56.7286 50.2447 57.0866 50.467C57.4446 50.6893 57.7333 51.0072 57.9202 51.3848L64.1789 64.0251L78.1724 66.0549C78.5898 66.1116 78.9829 66.2845 79.3067 66.5539C79.6305 66.8234 79.8719 67.1785 80.0035 67.5787C80.135 67.9789 80.1513 68.408 80.0504 68.817C79.9496 69.226 79.7358 69.5984 79.4333 69.8916L69.2996 79.7332L71.6831 93.6267C71.7556 94.0411 71.7102 94.4675 71.5521 94.8574C71.3941 95.2472 71.1296 95.5848 70.789 95.8316C70.4484 96.0784 70.0453 96.2247 69.6256 96.2535C69.2059 96.2824 68.7866 96.1928 68.4154 95.9949L55.8981 89.4364Z" fill="#6C6C6C" stroke="#6C6C6C" stroke-width="8" stroke-linecap="round" stroke-linejoin="round"/>
<path d="M98.4431 95.6812V119.841M98.4431 119.841V144M98.4431 119.841H122.603M98.4431 119.841H74.2837" stroke="#6C6C6C" stroke-width="8" stroke-linecap="round"/>
</g>
<defs>
<clipPath id="clip0_6134_31">
<rect width="127" height="148" fill="white"/>
</clipPath>
</defs>
</svg>
