<svg width="151" height="126" viewBox="0 0 151 126" fill="none" xmlns="http://www.w3.org/2000/svg">
<g clip-path="url(#clip0_6077_61)">
<path d="M6 30.5044H137V95.6584H116.846L117.35 115H113.823H71.5H6V30.5044Z" fill="white"/>
<rect x="6" y="5.0542" width="58.4462" height="54.9733" fill="white"/>
<rect width="17.1888" height="27.3952" transform="matrix(0.816389 -0.577503 0.569651 0.821887 49.3308 11.9268)" fill="white"/>
<path fill-rule="evenodd" clip-rule="evenodd" d="M73.2689 6.07535L82.7655 23.4419H128.833C131.927 23.4419 134.895 24.6767 137.083 26.8749C139.271 29.073 140.5 32.0542 140.5 35.1628V67.4252H132.722V35.1628C132.722 34.1266 132.312 33.1329 131.583 32.4002C130.854 31.6675 129.865 31.2558 128.833 31.2558H8.27777V105.488C8.27777 106.525 8.6875 107.518 9.4168 108.251C10.1461 108.984 11.1353 109.395 12.1667 109.395L91.5 109.425V117.209H12.1667C9.07247 117.209 6.10501 115.974 3.91709 113.776C1.72916 111.578 0.5 108.597 0.5 105.488V11.7209C0.5 8.61235 1.72916 5.63108 3.91709 3.43298C6.10501 1.23488 9.07247 0 12.1667 0H63.045C65.1345 4.44493e-05 67.1857 0.56388 68.9841 1.63259C70.7826 2.7013 72.2624 4.23567 73.2689 6.07535ZM9.4168 8.95829C10.1461 8.22558 11.1353 7.81396 12.1667 7.81396H63.045C63.7411 7.81408 64.4245 8.00194 65.0237 8.35792C65.623 8.71391 66.1161 9.22498 66.4516 9.83777L73.8911 23.4419H8.27777V11.7209C8.27777 10.6847 8.6875 9.69099 9.4168 8.95829Z" fill="#6C6C6C"/>
<path d="M114.833 59.2812C117.852 59.2812 120.302 61.7313 120.302 64.75V85.5312H141.083C142.534 85.5312 143.925 86.1075 144.95 87.1331C145.976 88.1587 146.552 89.5496 146.552 91C146.552 92.4504 145.976 93.8414 144.95 94.867C143.925 95.8926 142.534 96.4689 141.083 96.4689H120.302V117.25C120.302 118.7 119.726 120.091 118.7 121.117C117.675 122.143 116.284 122.719 114.833 122.719C113.383 122.719 111.992 122.143 110.967 121.117C109.941 120.091 109.365 118.7 109.365 117.25V96.4689H88.5835C87.1331 96.4689 85.7421 95.8926 84.7165 94.867C83.6909 93.8414 83.1147 92.4504 83.1147 91C83.1147 89.5496 83.6909 88.1587 84.7165 87.1331C85.7421 86.1075 87.1331 85.5312 88.5835 85.5312H109.365V64.75C109.365 61.7313 111.815 59.2812 114.833 59.2812Z" fill="#6C6C6C"/>
</g>
<defs>
<clipPath id="clip0_6077_61">
<rect width="150" height="126" fill="white" transform="translate(0.5)"/>
</clipPath>
</defs>
</svg>
