<svg width="135" height="102" viewBox="0 0 135 102" fill="none" xmlns="http://www.w3.org/2000/svg">
<path d="M30.2472 31.2472H30.2747M52.2397 64.2361H52.2672M60.4869 28.4981V66.9851C60.4869 68.4433 59.9076 69.8418 58.8765 70.8729C57.8454 71.904 56.4469 72.4833 54.9887 72.4833H27.4981C26.0399 72.4833 24.6415 71.904 23.6104 70.8729C22.5793 69.8418 22 68.4433 22 66.9851V28.4981C22 27.0399 22.5793 25.6415 23.6104 24.6104C24.6415 23.5793 26.0399 23 27.4981 23H54.9887C56.4469 23 57.8454 23.5793 58.8765 24.6104C59.9076 25.6415 60.4869 27.0399 60.4869 28.4981Z" stroke="#6C6C6C" stroke-width="4" stroke-linecap="round" stroke-linejoin="round"/>
<path d="M40.556 53.5477L36.075 55.8927C35.9423 55.961 35.7933 55.9912 35.6445 55.98C35.4956 55.9688 35.3528 55.9166 35.2318 55.8292C35.1109 55.7418 35.0164 55.6226 34.959 55.4849C34.9016 55.3471 34.8835 55.1961 34.9067 55.0487L35.7589 50.0784L32.1384 46.5596C32.0303 46.4549 31.9538 46.322 31.9176 46.1759C31.8814 46.0299 31.887 45.8767 31.9337 45.7336C31.9804 45.5906 32.0664 45.4636 32.1818 45.3671C32.2972 45.2706 32.4374 45.2085 32.5865 45.1878L37.5897 44.462L39.8302 39.9426C39.8971 39.8075 40.0003 39.6939 40.1283 39.6144C40.2563 39.5349 40.404 39.4928 40.5546 39.4928C40.7053 39.4928 40.8529 39.5349 40.9809 39.6144C41.1089 39.6939 41.2122 39.8075 41.279 39.9426L43.5167 44.462L48.52 45.1878C48.6693 45.208 48.8098 45.2699 48.9256 45.3662C49.0413 45.4625 49.1277 45.5895 49.1747 45.7326C49.2217 45.8757 49.2276 46.0291 49.1915 46.1753C49.1555 46.3216 49.079 46.4547 48.9709 46.5596L45.3476 50.0784L46.1998 55.0459C46.2257 55.1941 46.2095 55.3466 46.153 55.486C46.0965 55.6253 46.0019 55.746 45.8801 55.8343C45.7584 55.9226 45.6142 55.9748 45.4642 55.9851C45.3141 55.9955 45.1642 55.9634 45.0315 55.8927L40.556 53.5477Z" fill="#6C6C6C" stroke="#6C6C6C" stroke-width="4" stroke-linecap="round" stroke-linejoin="round"/>
<path d="M78.7604 31.2472H78.7879M100.753 64.2361H100.78M109 28.4981V66.9851C109 68.4433 108.421 69.8418 107.39 70.8729C106.359 71.904 104.96 72.4833 103.502 72.4833H76.0113C74.5531 72.4833 73.1546 71.904 72.1235 70.8729C71.0924 69.8418 70.5132 68.4433 70.5132 66.9851V28.4981C70.5132 27.0399 71.0924 25.6415 72.1235 24.6104C73.1546 23.5793 74.5531 23 76.0113 23H103.502C104.96 23 106.359 23.5793 107.39 24.6104C108.421 25.6415 109 27.0399 109 28.4981Z" stroke="#6C6C6C" stroke-width="4" stroke-linecap="round" stroke-linejoin="round"/>
<path d="M89.0692 53.5477L84.5882 55.8927C84.4555 55.961 84.3065 55.9912 84.1577 55.98C84.0088 55.9688 83.866 55.9166 83.745 55.8292C83.624 55.7418 83.5296 55.6226 83.4722 55.4849C83.4148 55.3471 83.3967 55.1961 83.4198 55.0487L84.2721 50.0784L80.6515 46.5596C80.5435 46.4549 80.467 46.322 80.4308 46.1759C80.3946 46.0299 80.4002 45.8767 80.4469 45.7336C80.4936 45.5906 80.5796 45.4636 80.695 45.3671C80.8104 45.2706 80.9506 45.2085 81.0996 45.1878L86.1029 44.462L88.3434 39.9426C88.4102 39.8075 88.5135 39.6939 88.6415 39.6144C88.7695 39.5349 88.9171 39.4928 89.0678 39.4928C89.2185 39.4928 89.3661 39.5349 89.4941 39.6144C89.6221 39.6939 89.7253 39.8075 89.7922 39.9426L92.0299 44.462L97.0332 45.1878C97.1824 45.208 97.323 45.2699 97.4388 45.3662C97.5545 45.4625 97.6409 45.5895 97.6879 45.7326C97.7349 45.8757 97.7407 46.0291 97.7047 46.1753C97.6686 46.3216 97.5922 46.4547 97.484 46.5596L93.8608 50.0784L94.713 55.0459C94.7389 55.1941 94.7227 55.3466 94.6662 55.486C94.6097 55.6253 94.5151 55.746 94.3933 55.8343C94.2715 55.9226 94.1274 55.9748 93.9774 55.9851C93.8273 55.9955 93.6774 55.9634 93.5446 55.8927L89.0692 53.5477Z" fill="#6C6C6C" stroke="#6C6C6C" stroke-width="4" stroke-linecap="round" stroke-linejoin="round"/>
<path d="M113 75.1966C113 73.2366 113 72.2566 113.381 71.5076C113.717 70.8491 114.252 70.3137 114.911 69.9781C115.66 69.5966 116.64 69.5966 118.6 69.5966H128.4C130.36 69.5966 131.34 69.5966 132.089 69.9781C132.747 70.3137 133.283 70.8491 133.618 71.5076C134 72.2566 134 73.2366 134 75.1966V98.4803C134 99.3308 134 99.7561 133.823 99.9888C133.747 100.09 133.649 100.173 133.538 100.233C133.426 100.293 133.302 100.328 133.176 100.335C132.883 100.353 132.53 100.117 131.823 99.6458L123.5 94.0966L115.177 99.6441C114.47 100.117 114.116 100.353 113.822 100.335C113.696 100.328 113.573 100.293 113.462 100.233C113.35 100.173 113.253 100.09 113.177 99.9888C113 99.7561 113 99.3308 113 98.4803V75.1966Z" fill="#6C6C6C" stroke="#6C6C6C" stroke-width="1.5" stroke-linecap="round" stroke-linejoin="round"/>
<path d="M99.1285 92.702H15C8.37259 92.702 3 87.3294 3 80.702V15C3 8.37259 8.37258 3 15 3H116.01C122.638 3 128.01 8.37258 128.01 15V56.9166" stroke="#6C6C6C" stroke-width="6" stroke-linecap="round"/>
</svg>
