<svg width="135" height="102" viewBox="0 0 135 102" fill="none" xmlns="http://www.w3.org/2000/svg">
<path d="M113 75.1966C113 73.2366 113 72.2566 113.381 71.5076C113.717 70.8491 114.252 70.3137 114.911 69.9781C115.66 69.5966 116.64 69.5966 118.6 69.5966H128.4C130.36 69.5966 131.34 69.5966 132.089 69.9781C132.747 70.3137 133.283 70.8491 133.618 71.5076C134 72.2566 134 73.2366 134 75.1966V98.4803C134 99.3308 134 99.7561 133.823 99.9888C133.747 100.09 133.649 100.173 133.538 100.233C133.426 100.293 133.302 100.328 133.176 100.335C132.883 100.353 132.53 100.117 131.823 99.6458L123.5 94.0966L115.177 99.6441C114.47 100.117 114.116 100.353 113.822 100.335C113.696 100.328 113.573 100.293 113.462 100.233C113.35 100.173 113.253 100.09 113.177 99.9888C113 99.7561 113 99.3308 113 98.4803V75.1966Z" fill="#6C6C6C" stroke="#6C6C6C" stroke-width="1.5" stroke-linecap="round" stroke-linejoin="round"/>
<path d="M99.1285 92.702H15C8.37259 92.702 3 87.3294 3 80.702V15C3 8.37259 8.37258 3 15 3H116.01C122.638 3 128.01 8.37258 128.01 15V56.9166" stroke="#6C6C6C" stroke-width="6" stroke-linecap="round"/>
</svg>
