<svg width="135" height="102" viewBox="0 0 135 102" fill="none" xmlns="http://www.w3.org/2000/svg">
<path d="M30.2472 31.2472H30.2747M52.2397 64.2361H52.2672M60.4869 28.4981V66.9851C60.4869 68.4433 59.9076 69.8418 58.8765 70.8729C57.8454 71.904 56.4469 72.4833 54.9887 72.4833H27.4981C26.0399 72.4833 24.6415 71.904 23.6104 70.8729C22.5793 69.8418 22 68.4433 22 66.9851V28.4981C22 27.0399 22.5793 25.6415 23.6104 24.6104C24.6415 23.5793 26.0399 23 27.4981 23H54.9887C56.4469 23 57.8454 23.5793 58.8765 24.6104C59.9076 25.6415 60.4869 27.0399 60.4869 28.4981Z" stroke="#536B79" stroke-width="4" stroke-linecap="round" stroke-linejoin="round"/>
<path d="M40.556 53.5476L36.075 55.8925C35.9423 55.9608 35.7933 55.9911 35.6445 55.9799C35.4956 55.9687 35.3528 55.9165 35.2318 55.8291C35.1109 55.7417 35.0164 55.6225 34.959 55.4848C34.9016 55.347 34.8835 55.196 34.9067 55.0486L35.7589 50.0783L32.1384 46.5594C32.0303 46.4548 31.9538 46.3219 31.9176 46.1758C31.8814 46.0298 31.887 45.8765 31.9337 45.7335C31.9804 45.5905 32.0664 45.4635 32.1818 45.367C32.2972 45.2705 32.4374 45.2083 32.5865 45.1877L37.5897 44.4619L39.8302 39.9424C39.8971 39.8074 40.0003 39.6937 40.1283 39.6143C40.2563 39.5348 40.404 39.4927 40.5546 39.4927C40.7053 39.4927 40.8529 39.5348 40.9809 39.6143C41.1089 39.6937 41.2122 39.8074 41.279 39.9424L43.5167 44.4619L48.52 45.1877C48.6693 45.2079 48.8098 45.2697 48.9256 45.3661C49.0413 45.4624 49.1277 45.5894 49.1747 45.7325C49.2217 45.8756 49.2276 46.029 49.1915 46.1752C49.1555 46.3215 49.079 46.4546 48.9709 46.5594L45.3476 50.0783L46.1998 55.0458C46.2257 55.194 46.2095 55.3464 46.153 55.4858C46.0965 55.6252 46.0019 55.7459 45.8801 55.8342C45.7584 55.9224 45.6142 55.9747 45.4642 55.985C45.3141 55.9953 45.1642 55.9633 45.0315 55.8925L40.556 53.5476Z" fill="#536B79" stroke="#536B79" stroke-width="4" stroke-linecap="round" stroke-linejoin="round"/>
<path d="M78.7604 31.2472H78.7879M100.753 64.2361H100.78M109 28.4981V66.9851C109 68.4433 108.421 69.8418 107.39 70.8729C106.359 71.904 104.96 72.4833 103.502 72.4833H76.0113C74.5531 72.4833 73.1546 71.904 72.1235 70.8729C71.0924 69.8418 70.5132 68.4433 70.5132 66.9851V28.4981C70.5132 27.0399 71.0924 25.6415 72.1235 24.6104C73.1546 23.5793 74.5531 23 76.0113 23H103.502C104.96 23 106.359 23.5793 107.39 24.6104C108.421 25.6415 109 27.0399 109 28.4981Z" stroke="#536B79" stroke-width="4" stroke-linecap="round" stroke-linejoin="round"/>
<path d="M89.0692 53.5476L84.5882 55.8925C84.4555 55.9608 84.3065 55.9911 84.1577 55.9799C84.0088 55.9687 83.866 55.9165 83.745 55.8291C83.624 55.7417 83.5296 55.6225 83.4722 55.4848C83.4148 55.347 83.3967 55.196 83.4198 55.0486L84.2721 50.0783L80.6515 46.5594C80.5435 46.4548 80.467 46.3219 80.4308 46.1758C80.3946 46.0298 80.4002 45.8765 80.4469 45.7335C80.4936 45.5905 80.5796 45.4635 80.695 45.367C80.8104 45.2705 80.9506 45.2083 81.0996 45.1877L86.1029 44.4619L88.3434 39.9424C88.4102 39.8074 88.5135 39.6937 88.6415 39.6143C88.7695 39.5348 88.9171 39.4927 89.0678 39.4927C89.2185 39.4927 89.3661 39.5348 89.4941 39.6143C89.6221 39.6937 89.7253 39.8074 89.7922 39.9424L92.0299 44.4619L97.0332 45.1877C97.1824 45.2079 97.323 45.2697 97.4388 45.3661C97.5545 45.4624 97.6409 45.5894 97.6879 45.7325C97.7349 45.8756 97.7407 46.029 97.7047 46.1752C97.6686 46.3215 97.5922 46.4546 97.484 46.5594L93.8608 50.0783L94.713 55.0458C94.7389 55.194 94.7227 55.3464 94.6662 55.4858C94.6097 55.6252 94.5151 55.7459 94.3933 55.8342C94.2715 55.9224 94.1274 55.9747 93.9774 55.985C93.8273 55.9953 93.6774 55.9633 93.5446 55.8925L89.0692 53.5476Z" fill="#536B79" stroke="#536B79" stroke-width="4" stroke-linecap="round" stroke-linejoin="round"/>
<path d="M113 75.1967C113 73.2367 113 72.2567 113.381 71.5077C113.717 70.8491 114.252 70.3137 114.911 69.9782C115.66 69.5967 116.64 69.5967 118.6 69.5967H128.4C130.36 69.5967 131.34 69.5967 132.089 69.9782C132.747 70.3137 133.283 70.8491 133.618 71.5077C134 72.2567 134 73.2367 134 75.1967V98.4804C134 99.3309 134 99.7561 133.823 99.9889C133.747 100.09 133.649 100.174 133.538 100.233C133.426 100.293 133.302 100.328 133.176 100.335C132.883 100.353 132.53 100.117 131.823 99.6459L123.5 94.0966L115.177 99.6441C114.47 100.117 114.116 100.353 113.822 100.335C113.696 100.328 113.573 100.293 113.462 100.233C113.35 100.173 113.253 100.09 113.177 99.9889C113 99.7561 113 99.3309 113 98.4804V75.1967Z" fill="#536B79" stroke="#536B79" stroke-width="1.5" stroke-linecap="round" stroke-linejoin="round"/>
<path d="M99.1285 92.702H15C8.37259 92.702 3 87.3294 3 80.702V15C3 8.37259 8.37258 3 15 3H116.01C122.638 3 128.01 8.37258 128.01 15V56.9166" stroke="#536B79" stroke-width="6" stroke-linecap="round"/>
</svg>
