<svg width="106" height="111" viewBox="0 0 106 111" fill="none" xmlns="http://www.w3.org/2000/svg">
<path d="M70.0736 102.235H20.3724C16.0302 102.235 11.8658 100.51 8.79538 97.4393C5.72495 94.3688 4 90.2044 4 85.8622V20.3724C4 16.0302 5.72495 11.8658 8.79538 8.79538C11.8658 5.72495 16.0302 4 20.3724 4H85.8622C90.2044 4 94.3688 5.72495 97.4393 8.79538C100.51 11.8658 102.235 16.0302 102.235 20.3724V66.596" stroke="#6C6C6C" stroke-width="7" stroke-linecap="round" stroke-linejoin="round"/>
<path d="M85.1431 86.694C85.1431 84.934 85.1431 84.054 85.4856 83.3814C85.7869 82.7901 86.2677 82.3093 86.859 82.008C87.5316 81.6655 88.4116 81.6655 90.1716 81.6655H98.9715C100.731 81.6655 101.611 81.6655 102.284 82.008C102.875 82.3093 103.356 82.7901 103.657 83.3814C104 84.054 104 84.934 104 86.694V107.602C104 108.365 104 108.747 103.841 108.956C103.773 109.047 103.685 109.122 103.585 109.176C103.484 109.229 103.374 109.261 103.26 109.267C102.997 109.283 102.68 109.071 102.045 108.648L94.5715 103.665L87.0979 108.647C86.463 109.071 86.1456 109.283 85.8816 109.267C85.7682 109.26 85.6577 109.229 85.5576 109.175C85.4575 109.122 85.3702 109.047 85.3018 108.956C85.1431 108.747 85.1431 108.365 85.1431 107.602V86.694Z" fill="#6C6C6C" stroke="#6C6C6C" stroke-width="1.5" stroke-linecap="round" stroke-linejoin="round"/>
</svg>
