<svg width="91" height="54" viewBox="0 0 91 54" fill="none" xmlns="http://www.w3.org/2000/svg">
<path d="M10.2472 10.2472H10.2747M32.2397 43.2361H32.2672M40.4869 7.49814V45.9851C40.4869 47.4433 39.9076 48.8418 38.8765 49.8729C37.8454 50.904 36.4469 51.4833 34.9887 51.4833H7.49812C6.03993 51.4833 4.64146 50.904 3.61036 49.8729C2.57926 48.8418 2 47.4433 2 45.9851V7.49814C2 6.03994 2.57926 4.64147 3.61036 3.61037C4.64146 2.57927 6.03993 2 7.49812 2H34.9887C36.4469 2 37.8454 2.57927 38.8765 3.61037C39.9076 4.64147 40.4869 6.03994 40.4869 7.49814Z" stroke="#6C6C6C" stroke-width="4" stroke-linecap="round" stroke-linejoin="round"/>
<path d="M20.556 32.5477L16.075 34.8927C15.9423 34.961 15.7933 34.9912 15.6445 34.98C15.4956 34.9688 15.3528 34.9166 15.2318 34.8292C15.1109 34.7418 15.0164 34.6226 14.959 34.4849C14.9016 34.3471 14.8835 34.1961 14.9067 34.0487L15.7589 29.0784L12.1384 25.5596C12.0303 25.4549 11.9538 25.322 11.9176 25.1759C11.8814 25.0299 11.887 24.8767 11.9337 24.7336C11.9804 24.5906 12.0664 24.4636 12.1818 24.3671C12.2972 24.2706 12.4374 24.2085 12.5865 24.1878L17.5897 23.462L19.8302 18.9426C19.8971 18.8075 20.0003 18.6939 20.1283 18.6144C20.2563 18.5349 20.404 18.4928 20.5546 18.4928C20.7053 18.4928 20.8529 18.5349 20.9809 18.6144C21.1089 18.6939 21.2122 18.8075 21.279 18.9426L23.5167 23.462L28.52 24.1878C28.6693 24.208 28.8098 24.2699 28.9256 24.3662C29.0413 24.4625 29.1277 24.5895 29.1747 24.7326C29.2217 24.8757 29.2276 25.0291 29.1915 25.1753C29.1555 25.3216 29.079 25.4547 28.9709 25.5596L25.3476 29.0784L26.1998 34.0459C26.2257 34.1941 26.2095 34.3466 26.153 34.486C26.0965 34.6253 26.0019 34.746 25.8801 34.8343C25.7584 34.9226 25.6142 34.9748 25.4642 34.9851C25.3141 34.9955 25.1642 34.9634 25.0315 34.8927L20.556 32.5477Z" fill="#6C6C6C" stroke="#6C6C6C" stroke-width="4" stroke-linecap="round" stroke-linejoin="round"/>
<path d="M58.7604 10.2472H58.7879M80.7529 43.2361H80.7803M89 7.49814V45.9851C89 47.4433 88.4208 48.8418 87.3897 49.8729C86.3586 50.904 84.9601 51.4833 83.5019 51.4833H56.0113C54.5531 51.4833 53.1546 50.904 52.1235 49.8729C51.0924 48.8418 50.5132 47.4433 50.5132 45.9851V7.49814C50.5132 6.03994 51.0924 4.64147 52.1235 3.61037C53.1546 2.57927 54.5531 2 56.0113 2H83.5019C84.9601 2 86.3586 2.57927 87.3897 3.61037C88.4208 4.64147 89 6.03994 89 7.49814Z" stroke="#6C6C6C" stroke-width="4" stroke-linecap="round" stroke-linejoin="round"/>
<path d="M69.0692 32.5477L64.5882 34.8927C64.4555 34.961 64.3065 34.9912 64.1577 34.98C64.0088 34.9688 63.866 34.9166 63.745 34.8292C63.624 34.7418 63.5296 34.6226 63.4722 34.4849C63.4148 34.3471 63.3967 34.1961 63.4198 34.0487L64.2721 29.0784L60.6515 25.5596C60.5435 25.4549 60.467 25.322 60.4308 25.1759C60.3946 25.0299 60.4002 24.8767 60.4469 24.7336C60.4936 24.5906 60.5796 24.4636 60.695 24.3671C60.8104 24.2706 60.9506 24.2085 61.0996 24.1878L66.1029 23.462L68.3434 18.9426C68.4102 18.8075 68.5135 18.6939 68.6415 18.6144C68.7695 18.5349 68.9171 18.4928 69.0678 18.4928C69.2185 18.4928 69.3661 18.5349 69.4941 18.6144C69.6221 18.6939 69.7253 18.8075 69.7922 18.9426L72.0299 23.462L77.0332 24.1878C77.1824 24.208 77.323 24.2699 77.4388 24.3662C77.5545 24.4625 77.6409 24.5895 77.6879 24.7326C77.7349 24.8757 77.7407 25.0291 77.7047 25.1753C77.6686 25.3216 77.5922 25.4547 77.484 25.5596L73.8608 29.0784L74.713 34.0459C74.7389 34.1941 74.7227 34.3466 74.6662 34.486C74.6097 34.6253 74.5151 34.746 74.3933 34.8343C74.2715 34.9226 74.1274 34.9748 73.9774 34.9851C73.8273 34.9955 73.6774 34.9634 73.5446 34.8927L69.0692 32.5477Z" fill="#6C6C6C" stroke="#6C6C6C" stroke-width="4" stroke-linecap="round" stroke-linejoin="round"/>
</svg>
