<svg width="118" height="147" viewBox="0 0 118 147" fill="none" xmlns="http://www.w3.org/2000/svg">
<rect x="7" y="4" width="104" height="139" fill="white"/>
<path d="M112.897 19.3999V127.199C112.897 131.283 111.275 135.2 108.387 138.088C105.499 140.976 101.582 142.599 97.4973 142.599H20.498C16.4137 142.599 12.4967 140.976 9.60866 138.088C6.72062 135.2 5.09814 131.283 5.09814 127.199V19.3999C5.09814 15.3156 6.72062 11.3985 9.60866 8.51051C12.4967 5.62248 16.4137 4 20.498 4H97.4973C101.582 4 105.499 5.62248 108.387 8.51051C111.275 11.3985 112.897 15.3156 112.897 19.3999Z" stroke="#6C6C6C" stroke-width="8" stroke-linecap="round" stroke-linejoin="round"/>
<path d="M76.9145 43.7927C76.727 43.6047 76.5042 43.4556 76.259 43.3538C76.0138 43.2521 75.7509 43.1997 75.4854 43.1997C75.2199 43.1997 74.957 43.2521 74.7118 43.3538C74.4666 43.4556 74.2438 43.6047 74.0563 43.7927L33.0977 84.7554V101.739C33.0977 102.274 33.3103 102.788 33.6889 103.166C34.0674 103.545 34.5808 103.757 35.1161 103.757H52.0995L93.0622 62.7986C93.2502 62.6111 93.3993 62.3883 93.5011 62.1431C93.6028 61.8979 93.6552 61.635 93.6552 61.3695C93.6552 61.104 93.6028 60.8411 93.5011 60.5959C93.3993 60.3507 93.2502 60.1279 93.0622 59.9404L76.9145 43.7927Z" fill="#6C6C6C"/>
</svg>
