<svg width="142" height="118" viewBox="0 0 142 118" fill="none" xmlns="http://www.w3.org/2000/svg">
<g clip-path="url(#clip0_6077_67)">
<rect x="8" y="29" width="126" height="83" fill="white"/>
<rect x="7" y="6" width="56" height="83" fill="white"/>
<rect x="47" y="15.2988" width="19.6989" height="30.1544" transform="rotate(-35 47 15.2988)" fill="white"/>
<path d="M81.636 44.4482C81.4797 44.2916 81.2941 44.1673 81.0897 44.0825C80.8854 43.9977 80.6663 43.9541 80.4451 43.9541C80.2238 43.9541 80.0047 43.9977 79.8004 44.0825C79.596 44.1673 79.4104 44.2916 79.2542 44.4482L45.1216 78.5842V92.7371C45.1216 93.1832 45.2988 93.6111 45.6142 93.9265C45.9297 94.242 46.3575 94.4192 46.8037 94.4192H60.9566L95.0925 60.2866C95.2492 60.1304 95.3735 59.9447 95.4582 59.7404C95.543 59.536 95.5867 59.3169 95.5867 59.0957C95.5867 58.8744 95.543 58.6554 95.4582 58.451C95.3735 58.2467 95.2492 58.061 95.0925 57.9048L81.636 44.4482Z" fill="#6C6C6C"/>
<path fill-rule="evenodd" clip-rule="evenodd" d="M73.9354 6.07535L83.4321 23.4419H129.5C132.594 23.4419 135.561 24.6767 137.749 26.8748C139.937 29.0729 141.167 32.0542 141.167 35.1628V105.488C141.167 108.597 139.937 111.578 137.749 113.776C135.561 115.974 132.594 117.209 129.5 117.209H12.8332C9.73898 117.209 6.77152 115.974 4.58359 113.776C2.39567 111.578 1.1665 108.597 1.1665 105.488V11.7209C1.1665 8.61235 2.39567 5.63108 4.58359 3.43298C6.77152 1.23488 9.73898 0 12.8332 0H63.7115C65.801 4.44493e-05 67.8522 0.56388 69.6507 1.63259C71.4492 2.7013 72.9289 4.23567 73.9354 6.07535ZM133.389 35.1628C133.389 34.1266 132.979 33.1328 132.25 32.4001C131.52 31.6674 130.531 31.2558 129.5 31.2558H8.94428V105.488C8.94428 106.525 9.354 107.518 10.0833 108.251C10.8126 108.984 11.8018 109.395 12.8332 109.395H129.5C130.531 109.395 131.52 108.984 132.25 108.251C132.979 107.518 133.389 106.525 133.389 105.488V35.1628ZM12.8332 7.81395C11.8018 7.81395 10.8126 8.22558 10.0833 8.95828C9.354 9.69098 8.94428 10.6847 8.94428 11.7209V23.4419H74.5576L67.1182 9.83777C66.7826 9.22498 66.2895 8.71391 65.6903 8.35792C65.091 8.00193 64.4077 7.81407 63.7115 7.81395H12.8332Z" fill="#6C6C6C"/>
</g>
<defs>
<clipPath id="clip0_6077_67">
<rect width="141" height="118" fill="white" transform="translate(0.5)"/>
</clipPath>
</defs>
</svg>
