<svg width="141" height="118" viewBox="0 0 141 118" fill="none" xmlns="http://www.w3.org/2000/svg">
<path fill-rule="evenodd" clip-rule="evenodd" d="M73.4354 6.07535L82.9321 23.4419H129C132.094 23.4419 135.061 24.6767 137.249 26.8748C139.437 29.0729 140.667 32.0542 140.667 35.1628V105.488C140.667 108.597 139.437 111.578 137.249 113.776C135.061 115.974 132.094 117.209 129 117.209H12.3332C9.23898 117.209 6.27152 115.974 4.08359 113.776C1.89567 111.578 0.666504 108.597 0.666504 105.488V11.7209C0.666504 8.61235 1.89567 5.63108 4.08359 3.43298C6.27152 1.23488 9.23898 0 12.3332 0H63.2115C65.301 4.44493e-05 67.3522 0.56388 69.1507 1.63259C70.9492 2.7013 72.4289 4.23567 73.4354 6.07535ZM132.889 35.1628C132.889 34.1266 132.479 33.1328 131.75 32.4001C131.02 31.6674 130.031 31.2558 129 31.2558H8.44428V105.488C8.44428 106.525 8.854 107.518 9.58331 108.251C10.3126 108.984 11.3018 109.395 12.3332 109.395H129C130.031 109.395 131.02 108.984 131.75 108.251C132.479 107.518 132.889 106.525 132.889 105.488V35.1628ZM12.3332 7.81395C11.3018 7.81395 10.3126 8.22558 9.58331 8.95828C8.854 9.69098 8.44428 10.6847 8.44428 11.7209V23.4419H74.0576L66.6182 9.83777C66.2826 9.22498 65.7895 8.71391 65.1903 8.35792C64.591 8.00193 63.9077 7.81407 63.2115 7.81395H12.3332Z" fill="#6C6C6C"/>
<path d="M81.136 44.448C80.9797 44.2914 80.7941 44.1671 80.5897 44.0823C80.3854 43.9975 80.1663 43.9539 79.9451 43.9539C79.7238 43.9539 79.5047 43.9975 79.3004 44.0823C79.096 44.1671 78.9104 44.2914 78.7542 44.448L44.6216 78.584V92.7369C44.6216 93.183 44.7988 93.6109 45.1142 93.9263C45.4297 94.2418 45.8575 94.419 46.3037 94.419H60.4566L94.5925 60.2864C94.7492 60.1302 94.8735 59.9445 94.9582 59.7402C95.043 59.5358 95.0867 59.3167 95.0867 59.0955C95.0867 58.8742 95.043 58.6552 94.9582 58.4508C94.8735 58.2465 94.7492 58.0608 94.5925 57.9046L81.136 44.448Z" fill="#6C6C6C"/>
</svg>
