<svg width="117" height="147" viewBox="0 0 117 147" fill="none" xmlns="http://www.w3.org/2000/svg">
<path d="M76.4145 43.7927C76.227 43.6047 76.0042 43.4556 75.759 43.3538C75.5138 43.2521 75.2509 43.1997 74.9854 43.1997C74.7199 43.1997 74.457 43.2521 74.2118 43.3538C73.9666 43.4556 73.7438 43.6047 73.5563 43.7927L32.5977 84.7554V101.739C32.5977 102.274 32.8103 102.788 33.1889 103.166C33.5674 103.545 34.0808 103.757 34.6161 103.757H51.5995L92.5622 62.7986C92.7502 62.6111 92.8993 62.3883 93.0011 62.1431C93.1028 61.8979 93.1552 61.635 93.1552 61.3695C93.1552 61.104 93.1028 60.8411 93.0011 60.5959C92.8993 60.3507 92.7502 60.1279 92.5622 59.9404L76.4145 43.7927Z" fill="#6C6C6C"/>
<path d="M112.397 19.3999V127.199C112.397 131.283 110.775 135.2 107.887 138.088C104.999 140.976 101.082 142.599 96.9973 142.599H19.998C15.9137 142.599 11.9967 140.976 9.10866 138.088C6.22062 135.2 4.59814 131.283 4.59814 127.199V19.3999C4.59814 15.3156 6.22062 11.3985 9.10866 8.51051C11.9967 5.62248 15.9137 4 19.998 4H96.9973C101.082 4 104.999 5.62248 107.887 8.51051C110.775 11.3985 112.397 15.3156 112.397 19.3999Z" stroke="#6C6C6C" stroke-width="8" stroke-linecap="round" stroke-linejoin="round"/>
</svg>
