<svg width="250" height="250" viewBox="0 0 250 250" fill="none" xmlns="http://www.w3.org/2000/svg">
<path d="M106.675 80.3C104.523 81.8137 102.785 83.8423 101.619 86.2005C100.453 88.5587 99.8967 91.1713 100 93.8C100 97.1152 98.683 100.295 96.3388 102.639C93.9946 104.983 90.8152 106.3 87.5 106.3C84.1848 106.3 81.0054 104.983 78.6612 102.639C76.317 100.295 75 97.1152 75 93.8C75 79.1 81.8 67.65 91.75 60.25C101.35 53.1 113.5 49.925 125 49.925C136.5 49.925 148.625 53.1 158.25 60.225C168.2 67.625 175 79.075 175 93.775C175 104.5 171.625 112.65 165.825 118.925C161.25 123.875 155.375 127.25 151.325 129.575L150.05 130.325C145.375 133.05 142.65 134.925 140.8 137.375C139.2 139.425 137.5 142.875 137.5 149.975C137.5 153.29 136.183 156.47 133.839 158.814C131.495 161.158 128.315 162.475 125 162.475C121.685 162.475 118.505 161.158 116.161 158.814C113.817 156.47 112.5 153.29 112.5 149.975C112.5 138.325 115.5 129.275 120.95 122.15C126.1 115.425 132.75 111.45 137.45 108.725L138.15 108.325C143.075 105.45 145.6 103.975 147.45 101.95C148.7 100.625 150 98.65 150 93.775C150.103 91.1463 149.547 88.5337 148.381 86.1755C147.215 83.8173 145.477 81.7887 143.325 80.275C138.875 77 132.25 74.95 125 74.95C117.75 74.95 111.15 76.975 106.675 80.3ZM125 200C128.315 200 131.495 198.683 133.839 196.339C136.183 193.995 137.5 190.815 137.5 187.5C137.5 184.185 136.183 181.005 133.839 178.661C131.495 176.317 128.315 175 125 175C121.685 175 118.505 176.317 116.161 178.661C113.817 181.005 112.5 184.185 112.5 187.5C112.5 190.815 113.817 193.995 116.161 196.339C118.505 198.683 121.685 200 125 200ZM0 125C0 91.8479 13.1696 60.0537 36.6117 36.6117C60.0537 13.1696 91.8479 0 125 0C158.152 0 189.946 13.1696 213.388 36.6117C236.83 60.0537 250 91.8479 250 125C250 158.152 236.83 189.946 213.388 213.388C189.946 236.83 158.152 250 125 250C91.8479 250 60.0537 236.83 36.6117 213.388C13.1696 189.946 0 158.152 0 125ZM125 25C98.4784 25 73.043 35.5357 54.2893 54.2893C35.5357 73.043 25 98.4784 25 125C25 151.522 35.5357 176.957 54.2893 195.711C73.043 214.464 98.4784 225 125 225C151.522 225 176.957 214.464 195.711 195.711C214.464 176.957 225 151.522 225 125C225 98.4784 214.464 73.043 195.711 54.2893C176.957 35.5357 151.522 25 125 25Z" fill="#536B79"/>
</svg>
