<svg width="85" height="87" viewBox="0 0 85 87" fill="none" xmlns="http://www.w3.org/2000/svg">
<path d="M9.58333 86.25C6.94792 86.25 4.69264 85.3124 2.8175 83.4373C0.942361 81.5622 0.00319444 79.3053 0 76.6667V9.58333C0 6.94792 0.939167 4.69264 2.8175 2.8175C4.69583 0.942361 6.95111 0.00319444 9.58333 0H38.3333C39.691 0 40.8298 0.46 41.7498 1.38C42.6698 2.3 43.1282 3.43722 43.125 4.79167C43.1218 6.14611 42.6618 7.28493 41.745 8.20812C40.8282 9.13132 39.691 9.58972 38.3333 9.58333H9.58333V76.6667H38.3333C39.691 76.6667 40.8298 77.1267 41.7498 78.0467C42.6698 78.9667 43.1282 80.1039 43.125 81.4583C43.1218 82.8128 42.6618 83.9516 41.745 84.8748C40.8282 85.798 39.691 86.2564 38.3333 86.25H9.58333ZM67.9219 47.9167H33.5417C32.184 47.9167 31.0468 47.4567 30.13 46.5367C29.2132 45.6167 28.7532 44.4794 28.75 43.125C28.7468 41.7706 29.2068 40.6333 30.13 39.7133C31.0532 38.7933 32.1904 38.3333 33.5417 38.3333H67.9219L58.9375 29.349C58.059 28.4705 57.6198 27.3924 57.6198 26.1146C57.6198 24.8368 58.059 23.7187 58.9375 22.7604C59.816 21.8021 60.934 21.3022 62.2917 21.2606C63.6493 21.2191 64.8073 21.6791 65.7656 22.6406L82.8958 39.7708C83.8542 40.7292 84.3333 41.8472 84.3333 43.125C84.3333 44.4028 83.8542 45.5208 82.8958 46.4792L65.7656 63.6094C64.8073 64.5677 63.6701 65.0277 62.354 64.9894C61.0378 64.951 59.899 64.4511 58.9375 63.4896C58.059 62.5312 57.6406 61.394 57.6821 60.0779C57.7236 58.7618 58.182 57.6629 59.0573 56.7812L67.9219 47.9167Z" fill="#FF5C5C"/>
</svg>
