<svg width="64" height="64" viewBox="0 0 64 64" fill="none" xmlns="http://www.w3.org/2000/svg">
<path d="M31.7183 0C34.7373 0 37.1873 2.4501 37.1873 5.4688V26.25H57.9683C59.4193 26.25 60.8103 26.8262 61.8353 27.8518C62.8613 28.8774 63.4373 30.2684 63.4373 31.7188C63.4373 33.1692 62.8613 34.5602 61.8353 35.5858C60.8103 36.6114 59.4193 37.1876 57.9683 37.1876H37.1873V57.9688C37.1873 59.4188 36.6113 60.8098 35.5853 61.8358C34.5603 62.8618 33.1693 63.4378 31.7183 63.4378C30.2683 63.4378 28.8773 62.8618 27.8523 61.8358C26.8263 60.8098 26.2503 59.4188 26.2503 57.9688V37.1876H5.4688C4.0184 37.1876 2.6274 36.6114 1.6018 35.5858C0.576199 34.5602 0 33.1692 0 31.7188C0 30.2684 0.576199 28.8774 1.6018 27.8518C2.6274 26.8262 4.0184 26.25 5.4688 26.25H26.2503V5.4688C26.2503 2.4501 28.7003 0 31.7183 0Z" fill="#85DDD8"/>
</svg>
