<svg width="158" height="114" viewBox="0 0 158 114" fill="none" xmlns="http://www.w3.org/2000/svg">
<rect width="158" height="114" rx="14" fill="#85DDD8"/>
<path d="M96 49C96 44.8 96 42.7 96.8175 41.095C97.5365 39.6838 98.6838 38.5365 100.095 37.8175C101.7 37 103.8 37 108 37H129C133.2 37 135.3 37 136.905 37.8175C138.316 38.5365 139.463 39.6838 140.182 41.095C141 42.7 141 44.8 141 49V98.8938C141 100.716 141 101.628 140.621 102.126C140.458 102.343 140.249 102.522 140.009 102.65C139.77 102.778 139.505 102.853 139.234 102.869C138.607 102.906 137.85 102.4 136.335 101.391L118.5 89.5L100.665 101.388C99.15 102.4 98.3925 102.906 97.7625 102.869C97.4919 102.852 97.228 102.778 96.9891 102.649C96.7503 102.521 96.542 102.343 96.3787 102.126C96 101.628 96 100.716 96 98.8938V49Z" fill="white" stroke="white" stroke-width="1.5" stroke-linecap="round" stroke-linejoin="round"/>
</svg>
