<svg width="186" height="155" viewBox="0 0 186 155" fill="none" xmlns="http://www.w3.org/2000/svg">
<g clip-path="url(#clip0_6169_51)">
<rect x="8.54779" y="38.2378" width="167.537" height="109.251" fill="#85DDD8"/>
<rect x="7.18015" y="6.82812" width="72.4853" height="28.6784" fill="#85DDD8"/>
<rect width="32.7267" height="34.6399" transform="matrix(0.819548 -0.573011 0.574142 0.818756 59.7772 20.8013)" fill="#85DDD8"/>
<path fill-rule="evenodd" clip-rule="evenodd" d="M96.5176 8.00066L109.101 30.8706H170.139C174.239 30.8706 178.171 32.4968 181.07 35.3915C183.968 38.2862 185.597 42.2122 185.597 46.3059V138.918C185.597 143.012 183.968 146.937 181.07 149.832C178.171 152.727 174.239 154.353 170.139 154.353H15.5592C11.4594 154.353 7.52766 152.727 4.62871 149.832C1.72977 146.937 0.101166 143.012 0.101166 138.918V15.4353C0.101166 11.3416 1.72977 7.41556 4.62871 4.52089C7.52766 1.62621 11.4594 0 15.5592 0H82.9717C85.7398 5.85354e-05 88.458 0.742573 90.8405 2.14996C93.2236 3.55735 95.1841 5.57795 96.5176 8.00066ZM175.292 46.3059C175.292 44.9413 174.749 43.6326 173.783 42.6677C172.817 41.7029 171.506 41.1608 170.139 41.1608H10.4065V138.918C10.4065 140.283 10.9494 141.591 11.9157 142.556C12.882 143.52 14.1926 144.063 15.5592 144.063H170.139C171.506 144.063 172.817 143.52 173.783 142.556C174.749 141.591 175.292 140.283 175.292 138.918V46.3059ZM15.5592 10.2902C14.1926 10.2902 12.882 10.8322 11.9157 11.7971C10.9494 12.762 10.4065 14.0707 10.4065 15.4353V30.8706H97.3423L87.485 12.9553C87.0405 12.1484 86.3874 11.4753 85.5935 11.0066C84.7996 10.5377 83.8942 10.2904 82.9717 10.2902H15.5592Z" fill="#85DDD8"/>
</g>
<defs>
<clipPath id="clip0_6169_51">
<rect width="186" height="155" fill="white"/>
</clipPath>
</defs>
</svg>
