<svg width="100" height="100" viewBox="0 0 100 100" fill="none" xmlns="http://www.w3.org/2000/svg">
<path d="M50 7.5C38.7283 7.5 27.9183 11.9777 19.948 19.948C11.9777 27.9183 7.5 38.7283 7.5 50C7.5 61.2717 11.9777 72.0817 19.948 80.052C27.9183 88.0223 38.7283 92.5 50 92.5C61.2717 92.5 72.0817 88.0223 80.052 80.052C88.0223 72.0817 92.5 61.2717 92.5 50C92.5 38.7283 88.0223 27.9183 80.052 19.948C72.0817 11.9777 61.2717 7.5 50 7.5ZM50 0C77.615 0 100 22.385 100 50C100 77.615 77.615 100 50 100C22.385 100 0 77.615 0 50C0 22.385 22.385 0 50 0ZM56.25 75C56.25 73.3424 55.5915 71.7527 54.4194 70.5806C53.2473 69.4085 51.6576 68.75 50 68.75C48.3424 68.75 46.7527 69.4085 45.5806 70.5806C44.4085 71.7527 43.75 73.3424 43.75 75C43.75 76.6576 44.4085 78.2473 45.5806 79.4194C46.7527 80.5915 48.3424 81.25 50 81.25C51.6576 81.25 53.2473 80.5915 54.4194 79.4194C55.5915 78.2473 56.25 76.6576 56.25 75ZM56.25 50C56.25 48.3424 55.5915 46.7527 54.4194 45.5806C53.2473 44.4085 51.6576 43.75 50 43.75C48.3424 43.75 46.7527 44.4085 45.5806 45.5806C44.4085 46.7527 43.75 48.3424 43.75 50C43.75 51.6576 44.4085 53.2473 45.5806 54.4194C46.7527 55.5915 48.3424 56.25 50 56.25C51.6576 56.25 53.2473 55.5915 54.4194 54.4194C55.5915 53.2473 56.25 51.6576 56.25 50ZM56.25 25C56.25 23.3424 55.5915 21.7527 54.4194 20.5806C53.2473 19.4085 51.6576 18.75 50 18.75C48.3424 18.75 46.7527 19.4085 45.5806 20.5806C44.4085 21.7527 43.75 23.3424 43.75 25C43.75 26.6576 44.4085 28.2473 45.5806 29.4194C46.7527 30.5915 48.3424 31.25 50 31.25C51.6576 31.25 53.2473 30.5915 54.4194 29.4194C55.5915 28.2473 56.25 26.6576 56.25 25Z" fill="#6C6C6C"/>
</svg>
