<svg width="69" height="91" viewBox="0 0 69 91" fill="none" xmlns="http://www.w3.org/2000/svg">
<g clip-path="url(#clip0_6050_6)">
<path d="M34.5 69.3333C32.2125 69.3333 30.0187 68.4202 28.4012 66.7949C26.7837 65.1696 25.875 62.9652 25.875 60.6667C25.875 55.8567 29.7131 52 34.5 52C36.7875 52 38.9813 52.9131 40.5988 54.5384C42.2163 56.1637 43.125 58.3681 43.125 60.6667C43.125 62.9652 42.2163 65.1696 40.5988 66.7949C38.9813 68.4202 36.7875 69.3333 34.5 69.3333ZM60.375 82.3333V39H8.625V82.3333H60.375ZM60.375 30.3333C62.6625 30.3333 64.8563 31.2464 66.4738 32.8717C68.0913 34.4971 69 36.7015 69 39V82.3333C69 84.6319 68.0913 86.8363 66.4738 88.4616C64.8563 90.0869 62.6625 91 60.375 91H8.625C6.33751 91 4.1437 90.0869 2.5262 88.4616C0.908702 86.8363 0 84.6319 0 82.3333V39C0 34.19 3.83812 30.3333 8.625 30.3333H12.9375V21.6667C12.9375 15.9203 15.2093 10.4093 19.253 6.34602C23.2968 2.28273 28.7813 0 34.5 0C37.3316 0 40.1355 0.560425 42.7516 1.64928C45.3677 2.73813 47.7447 4.33408 49.747 6.34602C51.7493 8.35796 53.3375 10.7465 54.4212 13.3752C55.5048 16.0039 56.0625 18.8214 56.0625 21.6667V30.3333H60.375ZM34.5 8.66667C31.0688 8.66667 27.7781 10.0363 25.3518 12.4743C22.9256 14.9123 21.5625 18.2189 21.5625 21.6667V30.3333H47.4375V21.6667C47.4375 18.2189 46.0744 14.9123 43.6482 12.4743C41.2219 10.0363 37.9312 8.66667 34.5 8.66667Z" fill="#3D3D3D"/>
</g>
<defs>
<clipPath id="clip0_6050_6">
<rect width="69" height="91" fill="white"/>
</clipPath>
</defs>
</svg>
