<svg width="65" height="45" viewBox="0 0 65 45" fill="none" xmlns="http://www.w3.org/2000/svg">
<path fill-rule="evenodd" clip-rule="evenodd" d="M9.7435 8.93571C15.3693 4.32322 23.3935 0 32.5 0C41.6065 0 49.6275 4.32322 55.2565 8.93571C57.8018 10.9978 60.0887 13.3534 62.0685 15.9525C62.8907 17.0582 63.5797 18.1446 64.077 19.1571C64.532 20.0764 65 21.2721 65 22.5C65 23.7279 64.5287 24.9236 64.077 25.8429C63.505 26.9679 62.8328 28.0404 62.0685 29.0475C60.0887 31.6466 57.8018 34.0022 55.2565 36.0643C49.6308 40.6768 41.6065 45 32.5 45C23.3935 45 15.3725 40.6768 9.7435 36.0643C7.19817 34.0022 4.91127 31.6466 2.9315 29.0475C2.16716 28.0404 1.495 26.9679 0.923 25.8429C0.468 24.9236 0 23.7279 0 22.5C0 21.2721 0.47125 20.0764 0.923 19.1571C1.42025 18.1446 2.10925 17.0582 2.9315 15.9525C4.91127 13.3534 7.19817 10.9978 9.7435 8.93571ZM32.5 32.1429C35.0859 32.1429 37.5658 31.1269 39.3943 29.3185C41.2228 27.5101 42.25 25.0574 42.25 22.5C42.25 19.9426 41.2228 17.4899 39.3943 15.6815C37.5658 13.8731 35.0859 12.8571 32.5 12.8571C29.9141 12.8571 27.4342 13.8731 25.6057 15.6815C23.7772 17.4899 22.75 19.9426 22.75 22.5C22.75 25.0574 23.7772 27.5101 25.6057 29.3185C27.4342 31.1269 29.9141 32.1429 32.5 32.1429Z" fill="black"/>
</svg>
