<svg width="70" height="92" viewBox="0 0 70 92" fill="none" xmlns="http://www.w3.org/2000/svg">
<g clip-path="url(#clip0_6077_130)">
<mask id="mask0_6077_130" style="mask-type:luminance" maskUnits="userSpaceOnUse" x="0" y="0" width="70" height="92">
<path d="M69.5 0.5H0.5V91.5H69.5V0.5Z" fill="white"/>
</mask>
<g mask="url(#mask0_6077_130)">
<path d="M35 69.8333C32.7125 69.8333 30.5187 68.9202 28.9012 67.2949C27.2837 65.6696 26.375 63.4652 26.375 61.1667C26.375 56.3567 30.2131 52.5 35 52.5C37.2875 52.5 39.4813 53.4131 41.0988 55.0384C42.7163 56.6637 43.625 58.8681 43.625 61.1667C43.625 63.4652 42.7163 65.6696 41.0988 67.2949C39.4813 68.9202 37.2875 69.8333 35 69.8333ZM60.875 82.8333V39.5H9.125V82.8333H60.875ZM60.875 30.8333C63.1625 30.8333 65.3563 31.7464 66.9738 33.3717C68.5913 34.9971 69.5 37.2015 69.5 39.5V82.8333C69.5 85.1319 68.5913 87.3363 66.9738 88.9616C65.3563 90.5869 63.1625 91.5 60.875 91.5H9.125C6.83751 91.5 4.6437 90.5869 3.0262 88.9616C1.4087 87.3363 0.5 85.1319 0.5 82.8333V39.5C0.5 34.69 4.33812 30.8333 9.125 30.8333H13.4375V22.1667C13.4375 16.4203 15.7093 10.9093 19.753 6.84602C23.7968 2.78273 29.2813 0.5 35 0.5C37.8316 0.5 40.6355 1.06042 43.2516 2.14928C45.8677 3.23813 48.2447 4.83408 50.247 6.84602C52.2493 8.85796 53.8375 11.2465 54.9212 13.8752C56.0048 16.5039 56.5625 19.3214 56.5625 22.1667V30.8333H60.875ZM35 9.16667C31.5688 9.16667 28.2781 10.5363 25.8518 12.9743C23.4256 15.4123 22.0625 18.7189 22.0625 22.1667V30.8333H47.9375V22.1667C47.9375 18.7189 46.5744 15.4123 44.1482 12.9743C41.7219 10.5363 38.4312 9.16667 35 9.16667Z" fill="#6C6C6C"/>
</g>
</g>
<defs>
<clipPath id="clip0_6077_130">
<rect width="69" height="91" fill="white" transform="translate(0.5 0.5)"/>
</clipPath>
</defs>
</svg>
