<svg width="72" height="52" viewBox="0 0 72 52" fill="none" xmlns="http://www.w3.org/2000/svg">
<g clip-path="url(#clip0_6077_138)">
<path d="M3.97413 27.1187C3.70329 26.3969 3.70329 25.6031 3.97413 24.8813C6.61202 18.5546 11.0897 13.1451 16.8395 9.33856C22.5893 5.53206 29.3522 3.5 36.271 3.5C43.1898 3.5 49.9527 5.53206 55.7025 9.33856C61.4523 13.1451 65.93 18.5546 68.5679 24.8813C68.8387 25.6031 68.8387 26.3969 68.5679 27.1187C65.93 33.4454 61.4523 38.8549 55.7025 42.6614C49.9527 46.4679 43.1898 48.5 36.271 48.5C29.3522 48.5 22.5893 46.4679 16.8395 42.6614C11.0897 38.8549 6.61202 33.4454 3.97413 27.1187Z" stroke="#6C6C6C" stroke-width="5" stroke-linecap="round" stroke-linejoin="round"/>
<path d="M36.4998 35.998C41.9223 35.998 46.318 31.6328 46.318 26.248C46.318 20.8633 41.9223 16.498 36.4998 16.498C31.0774 16.498 26.6816 20.8633 26.6816 26.248C26.6816 31.6328 31.0774 35.998 36.4998 35.998Z" stroke="#6C6C6C" stroke-width="5" stroke-linecap="round" stroke-linejoin="round"/>
</g>
<defs>
<clipPath id="clip0_6077_138">
<rect width="71" height="51" fill="white" transform="translate(0.5 0.5)"/>
</clipPath>
</defs>
</svg>
