<svg width="71" height="51" viewBox="0 0 71 51" fill="none" xmlns="http://www.w3.org/2000/svg">
<path d="M3.47413 26.6187C3.20329 25.8969 3.20329 25.1031 3.47413 24.3813C6.11202 18.0546 10.5897 12.6451 16.3395 8.83856C22.0893 5.03206 28.8522 3 35.771 3C42.6898 3 49.4527 5.03206 55.2025 8.83856C60.9523 12.6451 65.43 18.0546 68.0679 24.3813C68.3387 25.1031 68.3387 25.8969 68.0679 26.6187C65.43 32.9454 60.9523 38.3549 55.2025 42.1614C49.4527 45.9679 42.6898 48 35.771 48C28.8522 48 22.0893 45.9679 16.3395 42.1614C10.5897 38.3549 6.11202 32.9454 3.47413 26.6187Z" stroke="black" stroke-width="5" stroke-linecap="round" stroke-linejoin="round"/>
<path d="M35.9998 35.498C41.4223 35.498 45.818 31.1328 45.818 25.748C45.818 20.3633 41.4223 15.998 35.9998 15.998C30.5774 15.998 26.1816 20.3633 26.1816 25.748C26.1816 31.1328 30.5774 35.498 35.9998 35.498Z" stroke="black" stroke-width="5" stroke-linecap="round" stroke-linejoin="round"/>
</svg>
