<svg width="66" height="46" viewBox="0 0 66 46" fill="none" xmlns="http://www.w3.org/2000/svg">
<g clip-path="url(#clip0_6077_136)">
<path fill-rule="evenodd" clip-rule="evenodd" d="M10.2435 9.43571C15.8693 4.82322 23.8935 0.5 33 0.5C42.1065 0.5 50.1275 4.82322 55.7565 9.43571C58.3018 11.4978 60.5887 13.8534 62.5685 16.4525C63.3907 17.5582 64.0797 18.6446 64.577 19.6571C65.032 20.5764 65.5 21.7721 65.5 23C65.5 24.2279 65.0287 25.4236 64.577 26.3429C64.005 27.4679 63.3328 28.5404 62.5685 29.5475C60.5887 32.1466 58.3018 34.5022 55.7565 36.5643C50.1308 41.1768 42.1065 45.5 33 45.5C23.8935 45.5 15.8725 41.1768 10.2435 36.5643C7.69817 34.5022 5.41127 32.1466 3.4315 29.5475C2.66716 28.5404 1.995 27.4679 1.423 26.3429C0.968 25.4236 0.5 24.2279 0.5 23C0.5 21.7721 0.97125 20.5764 1.423 19.6571C1.92025 18.6446 2.60925 17.5582 3.4315 16.4525C5.41127 13.8534 7.69817 11.4978 10.2435 9.43571ZM33 32.6429C35.5859 32.6429 38.0658 31.6269 39.8943 29.8185C41.7228 28.0101 42.75 25.5574 42.75 23C42.75 20.4426 41.7228 17.9899 39.8943 16.1815C38.0658 14.3731 35.5859 13.3571 33 13.3571C30.4141 13.3571 27.9342 14.3731 26.1057 16.1815C24.2772 17.9899 23.25 20.4426 23.25 23C23.25 25.5574 24.2772 28.0101 26.1057 29.8185C27.9342 31.6269 30.4141 32.6429 33 32.6429Z" fill="#6C6C6C"/>
</g>
<defs>
<clipPath id="clip0_6077_136">
<rect width="65" height="45" fill="white" transform="translate(0.5 0.5)"/>
</clipPath>
</defs>
</svg>
