<svg width="90" height="132" viewBox="0 0 90 132" fill="none" xmlns="http://www.w3.org/2000/svg">
<path d="M0 24C0 15.6 -4.47035e-07 11.4 1.635 8.19C3.07308 5.3677 5.36769 3.07308 8.19 1.635C11.4 -4.47035e-07 15.6 0 24 0H66C74.4 0 78.6 -4.47035e-07 81.81 1.635C84.6323 3.07308 86.9269 5.3677 88.365 8.19C90 11.4 90 15.6 90 24V123.788C90 127.433 90 129.255 89.2425 130.253C88.9152 130.686 88.4975 131.044 88.0183 131.3C87.5392 131.557 87.01 131.706 86.4675 131.738C85.215 131.813 83.7 130.8 80.67 128.783L45 105L9.33 128.775C6.3 130.8 4.785 131.813 3.525 131.738C2.98377 131.705 2.45607 131.555 1.97829 131.299C1.50051 131.042 1.08401 130.685 0.757499 130.253C-1.28523e-06 129.255 0 127.433 0 123.788V24Z" fill="#536B79"/>
</svg>
