<svg width="168" height="140" viewBox="0 0 168 140" fill="none" xmlns="http://www.w3.org/2000/svg">
<path fill-rule="evenodd" clip-rule="evenodd" d="M87.3227 7.25667L98.7187 28H154C157.713 28 161.274 29.475 163.899 32.1005C166.525 34.726 168 38.287 168 42V126C168 129.713 166.525 133.274 163.899 135.899C161.274 138.525 157.713 140 154 140H14C10.287 140 6.72601 138.525 4.1005 135.899C1.475 133.274 0 129.713 0 126V14C0 10.287 1.475 6.72601 4.1005 4.1005C6.72601 1.47499 10.287 0 14 0H75.054C77.5614 5.30922e-05 80.0228 0.673523 82.181 1.95004C84.3392 3.22656 86.1149 5.05927 87.3227 7.25667ZM158.667 42C158.667 40.7623 158.175 39.5753 157.3 38.7002C156.425 37.825 155.238 37.3333 154 37.3333H9.33333V126C9.33333 127.238 9.825 128.425 10.7002 129.3C11.5753 130.175 12.7623 130.667 14 130.667H154C155.238 130.667 156.425 130.175 157.3 129.3C158.175 128.425 158.667 127.238 158.667 126V42ZM14 9.33333C12.7623 9.33333 11.5753 9.825 10.7002 10.7002C9.825 11.5753 9.33333 12.7623 9.33333 14V28H88.0693L79.142 11.7507C78.7393 11.0187 78.1476 10.4083 77.4285 9.98307C76.7094 9.55786 75.8894 9.33347 75.054 9.33333H14Z" fill="#6C6C6C"/>
<path fill-rule="evenodd" clip-rule="evenodd" d="M60.6396 63.4931C58.4365 65.6669 56.6852 68.2549 55.4865 71.1082C54.2878 73.9616 53.6653 77.0239 53.6549 80.1188C53.6445 83.2137 54.2465 86.28 55.4261 89.1413C56.6056 92.0027 58.3396 94.6024 60.528 96.7908C62.7164 98.9792 65.3162 100.713 68.1775 101.893C71.0388 103.072 74.1052 103.674 77.2001 103.664C80.295 103.654 83.3573 103.031 86.2106 101.832C89.0639 100.634 91.652 98.8823 93.8257 96.6793C98.1778 92.2684 100.609 86.3152 100.588 80.1188C100.567 73.9223 98.0965 67.9855 93.7149 63.6039C89.3333 59.2223 83.3965 56.7516 77.2001 56.7308C71.0036 56.7101 65.0504 59.141 60.6396 63.4931ZM87.7926 90.6462C86.4059 92.0329 84.7596 93.133 82.9477 93.8835C81.1358 94.634 79.1938 95.0203 77.2326 95.0203C75.2715 95.0203 73.3295 94.634 71.5176 93.8835C69.7057 93.133 68.0594 92.0329 66.6726 90.6462C65.2859 89.2594 64.1858 87.6131 63.4353 85.8012C62.6848 83.9893 62.2985 82.0474 62.2985 80.0862C62.2985 78.125 62.6848 76.183 63.4353 74.3712C64.1858 72.5593 65.2859 70.913 66.6726 69.5262C69.4733 66.7255 73.2719 65.1521 77.2326 65.1521C81.1934 65.1521 84.9919 66.7255 87.7926 69.5262C90.5933 72.3269 92.1667 76.1254 92.1667 80.0862C92.1667 84.047 90.5933 87.8455 87.7926 90.6462Z" fill="#6C6C6C"/>
<path d="M89.2994 101.206C88.7049 100.612 88.2334 99.9061 87.9116 99.1294C87.5899 98.3526 87.4243 97.5201 87.4243 96.6794C87.4243 95.8387 87.5899 95.0062 87.9116 94.2294C88.2334 93.4527 88.7049 92.7469 89.2994 92.1525C89.8939 91.558 90.5997 91.0864 91.3764 90.7647C92.1531 90.4429 92.9856 90.2773 93.8264 90.2773C94.6671 90.2773 95.4996 90.4429 96.2763 90.7647C97.0531 91.0864 97.7588 91.558 98.3533 92.1525L113.436 107.239C114.047 107.83 114.535 108.536 114.87 109.317C115.206 110.098 115.382 110.937 115.39 111.787C115.397 112.637 115.235 113.48 114.913 114.266C114.591 115.053 114.116 115.767 113.515 116.368C112.914 116.969 112.2 117.444 111.413 117.766C110.627 118.088 109.784 118.25 108.934 118.243C108.084 118.235 107.245 118.059 106.464 117.723C105.683 117.388 104.977 116.9 104.386 116.289L89.2994 101.206Z" fill="#6C6C6C"/>
</svg>
