<svg width="169" height="140" viewBox="0 0 169 140" fill="none" xmlns="http://www.w3.org/2000/svg">
<g clip-path="url(#clip0_6077_33)">
<rect x="8" y="35" width="153" height="99" fill="white"/>
<rect x="8" y="8" width="66" height="99" fill="white"/>
<rect x="57" y="16.0449" width="21" height="31" transform="rotate(-35 57 16.0449)" fill="white"/>
<path fill-rule="evenodd" clip-rule="evenodd" d="M61.1396 63.4929C58.9365 65.6667 57.1852 68.2547 55.9865 71.108C54.7878 73.9614 54.1653 77.0237 54.1549 80.1186C54.1445 83.2135 54.7465 86.2798 55.9261 89.1411C57.1056 92.0025 58.8396 94.6022 61.028 96.7906C63.2164 98.979 65.8162 100.713 68.6775 101.893C71.5388 103.072 74.6052 103.674 77.7001 103.664C80.795 103.654 83.8573 103.031 86.7106 101.832C89.5639 100.634 92.152 98.8821 94.3257 96.6791C98.6778 92.2682 101.109 86.315 101.088 80.1186C101.067 73.9221 98.5965 67.9853 94.2149 63.6037C89.8333 59.2221 83.8965 56.7514 77.7001 56.7306C71.5036 56.7099 65.5504 59.1408 61.1396 63.4929ZM88.2926 90.646C86.9059 92.0327 85.2596 93.1328 83.4477 93.8833C81.6358 94.6338 79.6938 95.0201 77.7326 95.0201C75.7715 95.0201 73.8295 94.6338 72.0176 93.8833C70.2057 93.1328 68.5594 92.0327 67.1726 90.646C65.7859 89.2592 64.6858 87.6129 63.9353 85.801C63.1848 83.9891 62.7985 82.0472 62.7985 80.086C62.7985 78.1248 63.1848 76.1828 63.9353 74.371C64.6858 72.5591 65.7859 70.9128 67.1726 69.526C69.9733 66.7253 73.7719 65.1519 77.7326 65.1519C81.6934 65.1519 85.4919 66.7253 88.2926 69.526C91.0933 72.3267 92.6667 76.1252 92.6667 80.086C92.6667 84.0468 91.0933 87.8453 88.2926 90.646Z" fill="#6C6C6C"/>
<path d="M89.7994 101.206C89.2049 100.612 88.7334 99.9061 88.4116 99.1294C88.0899 98.3526 87.9243 97.5201 87.9243 96.6794C87.9243 95.8387 88.0899 95.0062 88.4116 94.2294C88.7334 93.4527 89.2049 92.7469 89.7994 92.1525C90.3939 91.558 91.0997 91.0864 91.8764 90.7647C92.6531 90.4429 93.4856 90.2773 94.3264 90.2773C95.1671 90.2773 95.9996 90.4429 96.7763 90.7647C97.5531 91.0864 98.2588 91.558 98.8533 92.1525L113.936 107.239C114.547 107.83 115.035 108.536 115.37 109.317C115.706 110.098 115.882 110.937 115.89 111.787C115.897 112.637 115.735 113.48 115.413 114.266C115.091 115.053 114.616 115.767 114.015 116.368C113.414 116.969 112.7 117.444 111.913 117.766C111.127 118.088 110.284 118.25 109.434 118.243C108.584 118.235 107.745 118.059 106.964 117.723C106.183 117.388 105.477 116.9 104.886 116.289L89.7994 101.206Z" fill="#6C6C6C"/>
<path fill-rule="evenodd" clip-rule="evenodd" d="M87.8227 7.25667L99.2187 28H154.5C158.213 28 161.774 29.475 164.399 32.1005C167.025 34.726 168.5 38.287 168.5 42V126C168.5 129.713 167.025 133.274 164.399 135.899C161.774 138.525 158.213 140 154.5 140H14.5C10.787 140 7.22601 138.525 4.6005 135.899C1.975 133.274 0.5 129.713 0.5 126V14C0.5 10.287 1.975 6.72601 4.6005 4.1005C7.22601 1.47499 10.787 0 14.5 0H75.554C78.0614 5.30922e-05 80.5228 0.673523 82.681 1.95004C84.8392 3.22656 86.6149 5.05927 87.8227 7.25667ZM159.167 42C159.167 40.7623 158.675 39.5753 157.8 38.7002C156.925 37.825 155.738 37.3333 154.5 37.3333H9.83333V126C9.83333 127.238 10.325 128.425 11.2002 129.3C12.0753 130.175 13.2623 130.667 14.5 130.667H154.5C155.738 130.667 156.925 130.175 157.8 129.3C158.675 128.425 159.167 127.238 159.167 126V42ZM14.5 9.33333C13.2623 9.33333 12.0753 9.825 11.2002 10.7002C10.325 11.5753 9.83333 12.7623 9.83333 14V28H88.5693L79.642 11.7507C79.2393 11.0187 78.6476 10.4083 77.9285 9.98307C77.2094 9.55786 76.3894 9.33347 75.554 9.33333H14.5Z" fill="#6C6C6C"/>
</g>
<defs>
<clipPath id="clip0_6077_33">
<rect width="168" height="140" fill="white" transform="translate(0.5)"/>
</clipPath>
</defs>
</svg>
