<svg width="313" height="256" viewBox="0 0 313 256" fill="none" xmlns="http://www.w3.org/2000/svg">
<path d="M283.655 0H28.3655C14.1828 0 0 14.1856 0 28.3711V226.969C0 242.573 12.7645 255.34 28.3655 255.34H283.655C297.838 255.34 312.021 241.155 312.021 226.969V28.3711C312.021 14.1856 297.838 0 283.655 0ZM283.655 225.834C283.372 226.26 282.804 226.685 282.521 226.969H28.3655V29.506L29.5002 28.3711H282.379C282.804 28.6548 283.23 29.2223 283.514 29.506V225.834H283.655ZM141.828 177.461L106.371 134.763L56.7311 198.598H255.29L191.467 113.485L141.828 177.461Z" fill="#A9A9A9"/>
</svg>
