<svg width="252" height="205" viewBox="0 0 252 205" fill="none" xmlns="http://www.w3.org/2000/svg">
<rect x="14" y="20" width="224" height="172" fill="white"/>
<path d="M227.983 0.26416H23.5116C12.1521 0.26416 0.792542 11.6237 0.792542 22.9832V182.017C0.792542 194.512 11.0161 204.736 23.5116 204.736H227.983C239.343 204.736 250.702 193.376 250.702 182.017V22.9832C250.702 11.6237 239.343 0.26416 227.983 0.26416ZM227.983 181.108C227.756 181.449 227.302 181.79 227.075 182.017H23.5116V23.892L24.4204 22.9832H226.961C227.302 23.2104 227.642 23.6648 227.87 23.892V181.108H227.983ZM114.388 142.372L85.9891 108.18L46.2307 159.298H205.264L154.146 91.1405L114.388 142.372Z" fill="#AFB9BF"/>
</svg>
