<svg width="80" height="80" viewBox="0 0 80 80" fill="none" xmlns="http://www.w3.org/2000/svg">
<g clip-path="url(#clip0_6077_124)">
<mask id="mask0_6077_124" style="mask-type:luminance" maskUnits="userSpaceOnUse" x="0" y="0" width="80" height="80">
<path d="M80 0H0V80H80V0Z" fill="white"/>
</mask>
<g mask="url(#mask0_6077_124)">
<path d="M46.579 3.81601C46.5789 3.16902 46.3881 2.53642 46.0303 1.99736C45.6726 1.45829 45.1638 1.03669 44.5676 0.785307C43.9715 0.533927 43.3144 0.463928 42.6787 0.584068C42.043 0.704207 41.4568 1.00915 40.9935 1.46075L21.7369 20.2107H10.3948C7.77752 20.2107 5.26745 21.2505 3.41676 23.1011C1.56607 24.9518 0.526367 27.4619 0.526367 30.0792V49.7502C0.526367 52.3675 1.56607 54.8776 3.41676 56.7282C5.26745 58.5789 7.77752 59.6186 10.3948 59.6186H21.7303L40.9869 78.5331C41.4495 78.9865 42.0356 79.2933 42.6719 79.4149C43.3081 79.5366 43.9661 79.4676 44.5633 79.2168C45.1605 78.966 45.6704 78.5444 46.029 78.0049C46.3876 77.4655 46.5789 76.8322 46.579 76.1844V3.81601ZM53.8882 21.5068C54.1572 21.1683 54.4902 20.8862 54.8683 20.6766C55.2464 20.4669 55.6621 20.3338 56.0916 20.2849C56.5212 20.2361 56.9561 20.2723 57.3716 20.3917C57.7872 20.511 58.1751 20.7111 58.5132 20.9805L58.5264 20.9871L58.5395 21.0002L58.5724 21.0265L58.6711 21.1121L58.9737 21.3752C59.215 21.5945 59.5264 21.9059 59.9079 22.3094C60.6514 23.1186 61.6185 24.2963 62.5724 25.8621C64.4869 29.02 66.3422 33.7107 66.3422 39.9936C66.3422 46.27 64.4869 50.9673 62.5724 54.1252C61.8047 55.3972 60.9121 56.5895 59.9079 57.6844C59.4854 58.1348 59.0419 58.5651 58.579 58.9739L58.5264 59.02H58.5198C58.5198 59.02 55.579 60.6186 53.8948 58.5068C53.3532 57.8292 53.1012 56.9651 53.1936 56.1026C53.286 55.2401 53.7154 54.449 54.3882 53.9015L54.4014 53.8884L54.5198 53.7831C54.6426 53.6735 54.829 53.4871 55.079 53.2239C55.7835 52.4502 56.4094 51.6083 56.9474 50.7107C58.329 48.441 59.7632 44.9081 59.7632 39.9871C59.7632 35.066 58.329 31.5463 56.9474 29.2831C56.27 28.1672 55.4567 27.1396 54.5264 26.2239L54.4079 26.1186C53.7292 25.5748 53.2935 24.7843 53.1961 23.92C53.0987 23.0557 53.3476 22.1881 53.8882 21.5068ZM65.0856 7.82259C64.7488 7.54388 64.3599 7.3351 63.9415 7.20843C63.5231 7.08176 63.0837 7.03975 62.6489 7.08486C62.2141 7.12997 61.7926 7.26129 61.4091 7.47114C61.0257 7.681 60.6879 7.96518 60.4155 8.30708C60.1431 8.64898 59.9416 9.04174 59.8228 9.46241C59.7039 9.88308 59.6701 10.3232 59.7233 10.7571C59.7765 11.191 59.9156 11.6099 60.1326 11.9894C60.3496 12.3689 60.64 12.7014 60.9869 12.9673L61.0593 13.0331L61.4014 13.3292C61.7172 13.6055 62.158 14.0331 62.7237 14.6121C63.8422 15.7765 65.3553 17.5265 66.8685 19.8357C69.8948 24.4476 72.9211 31.2371 72.9211 40.0265C72.9468 47.1994 70.84 54.218 66.8685 60.191C65.3553 62.4936 63.8422 64.2305 62.7237 65.3884C62.1943 65.9385 61.6411 66.4653 61.0658 66.9673L60.9935 67.0331H60.9869C60.323 67.5826 59.9012 68.3707 59.8122 69.2279C59.7233 70.0851 59.9743 70.943 60.5113 71.617C61.0483 72.2911 61.8284 72.7274 62.6838 72.8323C63.5392 72.9372 64.4016 72.7022 65.0856 72.1779L65.3027 72.0002L65.7961 71.5726C66.2106 71.1976 66.7829 70.6647 67.4606 69.9607C69.2853 68.0659 70.9285 66.0043 72.3685 63.8029C77.0419 56.7561 79.5214 48.4821 79.4935 40.0265C79.5109 31.5643 77.0325 23.2848 72.3685 16.2239C70.9281 14.0204 69.2874 11.9546 67.4672 10.0529C66.7791 9.33865 66.059 8.65594 65.3093 8.0068L65.158 7.8818L65.1119 7.84233L65.0987 7.82917L65.0856 7.82259Z" fill="#6C6C6C"/>
</g>
</g>
<defs>
<clipPath id="clip0_6077_124">
<rect width="80" height="80" fill="white"/>
</clipPath>
</defs>
</svg>
