<svg width="84" height="76" viewBox="0 0 84 76" fill="none" xmlns="http://www.w3.org/2000/svg">
<path d="M34 22C34 13.16 34 8.736 36.808 5.784C37.256 5.30933 37.7493 4.87333 38.288 4.476C41.632 2 46.64 2 56.668 2H59.332C69.356 2 74.368 2 77.712 4.48C78.248 4.87467 78.7413 5.30933 79.192 5.784C82 8.736 82 13.156 82 22C82 30.84 82 35.264 79.192 38.216C78.7355 38.6919 78.2404 39.1294 77.712 39.524C74.68 41.772 70.272 41.98 62 41.996M2 50H50M34 18H82M2 26C2 12.732 12.732 2 26 2L22.572 8.856M82 50C82 63.268 71.268 74 58 74L61.428 67.144M2 54C2 62.84 2 67.264 4.808 70.216C5.25867 70.6907 5.752 71.1267 6.288 71.524C9.632 74 14.64 74 24.668 74H27.332C37.356 74 42.368 74 45.712 71.52C46.248 71.128 46.7413 70.6933 47.192 70.216C50 67.264 50 62.844 50 54C50 45.16 50 40.736 47.192 37.784C46.7354 37.3081 46.2404 36.8706 45.712 36.476C42.368 34 37.36 34 27.332 34H24.668C14.644 34 9.632 34 6.288 36.48C5.75972 36.8733 5.26471 37.3095 4.808 37.784C2 40.736 2 45.156 2 54Z" stroke="black" stroke-width="3" stroke-linecap="round" stroke-linejoin="round"/>
</svg>
