<svg width="85" height="77" viewBox="0 0 85 77" fill="none" xmlns="http://www.w3.org/2000/svg">
<path d="M34.5 22.5C34.5 13.66 34.5 9.236 37.308 6.284C37.756 5.80933 38.2493 5.37333 38.788 4.976C42.132 2.5 47.14 2.5 57.168 2.5H59.832C69.856 2.5 74.868 2.5 78.212 4.98C78.748 5.37467 79.2413 5.80933 79.692 6.284C82.5 9.236 82.5 13.656 82.5 22.5C82.5 31.34 82.5 35.764 79.692 38.716C79.2355 39.1919 78.7404 39.6294 78.212 40.024C75.18 42.272 70.772 42.48 62.5 42.496M2.5 50.5H50.5M34.5 18.5H82.5M2.5 26.5C2.5 13.232 13.232 2.5 26.5 2.5L23.072 9.356M82.5 50.5C82.5 63.768 71.768 74.5 58.5 74.5L61.928 67.644M2.5 54.5C2.5 63.34 2.5 67.764 5.308 70.716C5.75867 71.1907 6.252 71.6267 6.788 72.024C10.132 74.5 15.14 74.5 25.168 74.5H27.832C37.856 74.5 42.868 74.5 46.212 72.02C46.748 71.628 47.2413 71.1933 47.692 70.716C50.5 67.764 50.5 63.344 50.5 54.5C50.5 45.66 50.5 41.236 47.692 38.284C47.2354 37.8081 46.7404 37.3706 46.212 36.976C42.868 34.5 37.86 34.5 27.832 34.5H25.168C15.144 34.5 10.132 34.5 6.788 36.98C6.25972 37.3733 5.76471 37.8095 5.308 38.284C2.5 41.236 2.5 45.656 2.5 54.5Z" stroke="#6C6C6C" stroke-width="3" stroke-linecap="round" stroke-linejoin="round"/>
</svg>
