<svg width="81" height="86" viewBox="0 0 81 86" fill="none" xmlns="http://www.w3.org/2000/svg">
<g clip-path="url(#clip0_6077_166)">
<mask id="mask0_6077_166" style="mask-type:luminance" maskUnits="userSpaceOnUse" x="0" y="0" width="81" height="86">
<path d="M80.5 0.5H0.5V85.5H80.5V0.5Z" fill="white"/>
</mask>
<g mask="url(#mask0_6077_166)">
<path d="M40.5 44.1976C59.334 44.1976 78.6601 56.473 79.9119 81.134C79.96 82.0846 79.6298 83.0155 78.9938 83.7222C78.3577 84.429 77.4679 84.8538 76.5197 84.9033C66.5819 85.411 20.5575 85.7223 4.48509 84.9033C3.53602 84.855 2.64496 84.4307 2.0079 83.7238C1.37085 83.017 1.03999 82.0854 1.08809 81.134C2.33987 56.4778 21.666 44.1976 40.5 44.1976ZM40.5 1.09229C35.7482 1.09229 31.191 2.98455 27.831 6.3528C24.471 9.72105 22.5833 14.2894 22.5833 19.0528C22.5833 23.8162 24.471 28.3846 27.831 31.7528C31.191 35.1211 35.7482 37.0133 40.5 37.0133C45.2518 37.0133 49.809 35.1211 53.169 31.7528C56.529 28.3846 58.4167 23.8162 58.4167 19.0528C58.4167 14.2894 56.529 9.72105 53.169 6.3528C49.809 2.98455 45.2518 1.09229 40.5 1.09229Z" fill="#6C6C6C"/>
</g>
</g>
<defs>
<clipPath id="clip0_6077_166">
<rect width="80" height="85" fill="white" transform="translate(0.5 0.5)"/>
</clipPath>
</defs>
</svg>
