<svg width="80" height="85" viewBox="0 0 80 85" fill="none" xmlns="http://www.w3.org/2000/svg">
<g clip-path="url(#clip0_6050_2)">
<path d="M40 43.6976C58.834 43.6976 78.1601 55.973 79.4119 80.634C79.46 81.5846 79.1298 82.5155 78.4938 83.2222C77.8577 83.929 76.9679 84.3538 76.0197 84.4033C66.0819 84.911 20.0575 85.2223 3.98509 84.4033C3.03602 84.355 2.14496 83.9307 1.5079 83.2238C0.870852 82.517 0.53999 81.5854 0.588094 80.634C1.83987 55.9778 21.166 43.6976 40 43.6976ZM40 0.592285C35.2482 0.592285 30.691 2.48455 27.331 5.8528C23.971 9.22105 22.0833 13.7894 22.0833 18.5528C22.0833 23.3162 23.971 27.8846 27.331 31.2528C30.691 34.6211 35.2482 36.5133 40 36.5133C44.7518 36.5133 49.309 34.6211 52.669 31.2528C56.029 27.8846 57.9167 23.3162 57.9167 18.5528C57.9167 13.7894 56.029 9.22105 52.669 5.8528C49.309 2.48455 44.7518 0.592285 40 0.592285Z" fill="#3D3D3D"/>
</g>
<defs>
<clipPath id="clip0_6050_2">
<rect width="80" height="85" fill="white"/>
</clipPath>
</defs>
</svg>
